<svg id="Logo" xmlns="http://www.w3.org/2000/svg" viewBox="0 0 1363.3 1265.19">
  <g id="Background">
    <path d="M474.26,1084.13l-.47.17-.25-.61.62-.38C474.19,1083.58,474.23,1083.86,474.26,1084.13ZM381,1196.6q-19.9-17.49-38.6-37.14c-3.47,1-6.95,1.89-10.42,2.83a575,575,0,0,0,66.64,61,87.58,87.58,0,0,1-8.27-9.77A70.72,70.72,0,0,1,381,1196.6Zm618.8-856c-3.34-.07-5.63-.82-7.6-3.95a298.54,298.54,0,0,0-42.56-53.25c-.18,2.14-.38,4.27-.68,6.37-.25,1.68-.41,3.34-.53,5a263.38,263.38,0,0,1,35.12,45.45q-11.36.79-22.3,2.25l.43.71q2.35,3.74,4.66,7.52c5.11-.55,10.26-1,15.46-1.3,5.94-.34,9,1.43,11.65,6.7a337.44,337.44,0,0,1,16,36.43c2.77-1,5.56-2,8.35-2.88A360.1,360.1,0,0,0,1000,348.73c40.55,2.71,77.6,11.17,110.81,25.85q10,0,20.21.79-4.11-2.3-8.3-4.46C1084.26,351.18,1043.05,341.6,999.83,340.64Zm148.9,816.05q-4.92-1.73-9.71-3.73-10.38,6-21.34,11.12a43.17,43.17,0,0,1,2.78,8.1A290.61,290.61,0,0,0,1148.73,1156.69ZM190.92,652.53a569.6,569.6,0,0,0-11.52,86.11c3-2.81,6.13-5.58,9.28-8.27A542.32,542.32,0,0,1,201.53,646c-2.51,1.76-5.05,3.47-7.69,5C192.87,651.57,191.89,652.06,190.92,652.53ZM219.4,946.85c.32,3.13.63,6.26.9,9.39a17.93,17.93,0,0,1-.08,5c-1.92-5.24-3.73-10.5-5.48-15.77-3.65-1.09-7.26-2.23-10.82-3.47a567.27,567.27,0,0,0,31.92,80.5q3.49-5.88,6.93-11.8A260.24,260.24,0,0,1,227.58,949Q223.46,948,219.4,946.85ZM339.88,691.12c-1.91-2.2-3.73-4.44-5.41-6.75q-6.15,4.61-12.09,9.56,5.46.93,11,2.18C335.51,694.41,337.68,692.75,339.88,691.12Zm-43.29,410.09q-8.25-1.7-16.54-3.3,15.78,22.74,33.7,43.81c1.26-.5,2.53-1,3.79-1.64,3.81-1.81,7.7-3.48,11.57-5.17.51-.23.93-.44,1.34-.65A268.24,268.24,0,0,1,296.59,1101.21ZM233.28,702.28A279.38,279.38,0,0,1,223.52,634a37.5,37.5,0,0,0-8.42,3.1,295.34,295.34,0,0,0,9.71,69Q229,704.05,233.28,702.28Zm1047-110.2c-.25-2.87-.51-5.75-.72-8.62,1,2.64,1.92,5.29,2.85,7.94,3-.91,6-1.69,9.11-2.31-76-224.72-288.23-388.51-541.92-388.37-253.36.14-465.5,163.83-541.32,388.39,3.05.69,6.08,1.52,9.1,2.47l.38-1.14c0,.41-.09.81-.15,1.21q4.2,1.33,8.36,2.94c5-35.26,17.39-70.21,37.92-104.81,27-45.43,61.54-78.86,102.93-101.45-1.48-2.31-3-4.6-4.69-6.86A307.24,307.24,0,0,0,326,405.39a15.78,15.78,0,0,1-4.24,2.51A552.82,552.82,0,0,1,639,221.08c-12.36,6.4-25,12.3-37,19.3a287,287,0,0,0-42.48,30.25c3.69.66,7.32,1.39,10.92,2.18,39.9-33.52,87.69-54.35,144.09-61,87.82-10.35,160.16,19.19,211.32,61.87q5.33-1.28,10.79-2.32a291.58,291.58,0,0,0-83-50.53c-1.06-.43-2.08-1-3.4-1.57,28-.69,121.68,32.66,175.47,62.37C1075.58,309.18,1156.5,375,1170,398.57c-10.22-6-20.48-12.55-31-18.71-1.62,2.39-3.06,4.52-4.49,6.58,40.35,22.89,74.16,56.37,100.59,101.64,20.6,35.28,32.76,71,37.16,107C1274.86,594,1277.56,593,1280.28,592.08ZM1183.39,693q-7.47-6.43-15.24-12.3c-1.63,2.4-3.34,4.78-5.2,7.08,3.12,2.33,6.2,4.71,9.23,7.18Q1177.84,693.83,1183.39,693Zm-15.77,440.61a9,9,0,0,0,1.56.86c2.55,1.09,5.11,2.19,7.65,3.31a4.51,4.51,0,0,1,.52-.17c-.09.09-.17.19-.26.29,2.72,1.2,5.42,2.43,8.1,3.73.22.11.45.19.68.3q17.89-21.12,33.78-43.88-8.94,1.86-17.89,3.65A261.88,261.88,0,0,1,1167.62,1133.62ZM500.92,340.25c-1.76,2.9-3.5,4.37-7.18,4.51Q429.36,347.12,374.17,375c7.48-.52,14.85-.67,22.14-.49C425.72,362.81,458,355.73,493,353a362.52,362.52,0,0,0-15,35.31c2.78.87,5.56,1.78,8.32,2.74a318.88,318.88,0,0,1,14.46-32.73c2-3.86,4.28-5.21,8.57-5.06,7.31.26,14.5.81,21.62,1.55,1.64-2.78,3.29-5.56,5.05-8.27q-13.43-1.73-27.44-2.48a332.19,332.19,0,0,1,42.82-53.64c-.23-3.8-.61-7.62-1.08-11.46A289.31,289.31,0,0,0,500.92,340.25Zm808,312.18a79.11,79.11,0,0,1-10.6-6.57,543.75,543.75,0,0,1,12.75,83.53q4.77,3.89,9.43,8.17A572.74,572.74,0,0,0,1308.91,652.43ZM1282,954.22q.35-4,.72-8-4.24,1.23-8.58,2.33a263.89,263.89,0,0,1-16.54,62.61q3.23,5.58,6.49,11.12a569.08,569.08,0,0,0,31.81-80.2c-3.61,1.24-7.28,2.39-11,3.49C1284,948.45,1283,951.34,1282,954.22ZM1263.54,701.3c2.88,1.11,5.75,2.3,8.58,3.59A285.93,285.93,0,0,0,1282.27,636a40.31,40.31,0,0,0-8.3-2.12A284.48,284.48,0,0,1,1263.54,701.3ZM476.38,1264.07q-16.08-9-31.56-19a74.73,74.73,0,0,1-27.66-7.93,570.9,570.9,0,0,0,55.74,35.3Zm-128-106.29a317.39,317.39,0,0,0,30.17,16.79,45.59,45.59,0,0,1,2-8.36q-11.07-5.39-21.56-11.79C355.45,1155.64,351.9,1156.74,348.33,1157.78ZM988.88,1281.7l3,8.62a570.79,570.79,0,0,0,92.35-54.37,72.84,72.84,0,0,1-29.08,9A539.55,539.55,0,0,1,988.88,1281.7Zm129.51-84.56a58.27,58.27,0,0,1-4.56,9.11,93.51,93.51,0,0,1-15.14,18.94,575.4,575.4,0,0,0,69.15-62.94c-3.44-.81-6.88-1.75-10.33-2.76Q1138.6,1179.41,1118.39,1197.14Z" transform="translate(-68.35 -117.41)"/>
  </g>
  <g id="Plants">
    <path d="M947.39,1016q2.49,2.67,5.07,5.28c-26.2.25-50.64-9.5-73-30.43a19.5,19.5,0,0,0-1.58-1.27q-3.76-9.13-7.48-18.29c3.09-21.82.87-42-6.83-60.44.62-4.23,1.19-8.46,1.75-12.69,12.75,24.07,16.78,50.3,11.7,78.87a8,8,0,0,0,2,6.1c14.7,15,31.66,26.17,52.5,30.78A94,94,0,0,0,947.39,1016ZM614.58,354.52c.55,5.59-1.4,12-4,17.16-2.78,5.48-8.59,7.78-15.07,6.35-6.87-1.53-11.42-5.91-12.33-12.77a41.58,41.58,0,0,1,.71-15.25c3.43-13.57,5-27.08,2.37-41.26C600.53,321.09,612.66,334.94,614.58,354.52Zm-5.25.58a57.54,57.54,0,0,0-15-32.62c-2,9.58-4.27,18.31-5.62,27.18a47.06,47.06,0,0,0,.17,15.12c.85,4.82,4.92,8.06,9.73,7a17,17,0,0,0,9.4-6.53C609.74,362.68,609.72,358.45,609.33,355.1ZM893.21,578.76c-1.94.3-4.67,2.31-5,4s1.88,3.85,4,7.55c2.46-3.41,4.72-5.19,4.8-7.05C897,581.73,894.29,578.59,893.21,578.76Zm-9.68-20.48a7.14,7.14,0,0,0,4.54,4.52c1.29.31,3.22-2.15,6.35-4.48-3.21-2.14-5.08-4.36-6.9-4.31C886.05,554,883.27,557.1,883.53,558.28ZM893,603.85c-1.42,0-4,3-3.8,4.26.3,1.86,2.52,4.53,4.17,4.72s3.5-2.34,6.8-4.84C896.68,605.86,894.78,603.78,893,603.85Zm-24.36,269c-.31,2.34-.61,4.7-.91,7.06,6.25,1.33,12.48,2.57,18.71,3.6a45.27,45.27,0,0,0-1.95-7.75c-5-.89-10-1.9-14.94-3.14ZM698,613.37q-3.79,7.82-7.08,15.9A38.2,38.2,0,0,0,698,613.37Zm204.7,401c-7.6-4.2-14.27-10.11-21-15.84,2.22,5.33,4.44,10.68,6.71,16,22.55,16.14,48.25,22.07,76.73,18.73-2.4-2.14-4.78-4.3-7.1-6.51A99.24,99.24,0,0,1,902.68,1014.34Zm-37.14-55.29a111.53,111.53,0,0,0-4.09-34.38C859.7,936.66,861.39,948,865.54,959.05ZM799.8,609.87c1.34,8.4,5.34,16.85,11,22.31a154,154,0,0,0-9.45-19.59C800.87,611.67,800.32,610.77,799.8,609.87ZM638.15,926.17a107.58,107.58,0,0,0-3.74,31.09A87.43,87.43,0,0,0,638.15,926.17Zm605.46-314.46c23.92-17.83,50.39-27.83,80.55-23.5a49.13,49.13,0,0,1,22.12,9.43c13.69,10.61,15.4,28.63,5.67,43.44a33.15,33.15,0,0,1-42.69,11.54,86.27,86.27,0,0,1-14.65-9.55c-12.42-9.75-25.94-11.74-41-7.56-14.81,4.11-27,12.68-38.94,21.7-3.09,2.32-6.12,4.71-9.18,7.07C1213.79,643.3,1225.56,625.16,1243.61,611.71ZM1316.14,594c17.64,12.78,17.18,40.6-11.38,48,10.87,8.93,25.25,9.57,35.5,2,9.43-6.94,13.16-20.55,8.62-31.4C1344,600.86,1328.74,592.21,1316.14,594Zm-92.55,49.72c2.3-1.48,4.58-3,6.9-4.41,12.79-7.86,26.43-13.52,41.68-11.75,8,.93,15.75,4,23.56,6.26,11.36,3.33,22.85-2.51,25.59-13.18a19.16,19.16,0,0,0-15.5-23.46,47.41,47.41,0,0,0-19.39.42C1259.63,604.53,1238.56,619.94,1223.59,643.72ZM877.93,533.93c-.39,1.61,1.69,3.82,3.7,7.76,2.51-3.61,4.67-5.37,4.73-7.19,0-1.59-2.28-3.24-3.55-4.87C881.08,531,878.34,532.21,877.93,533.93ZM694.86,381.05c.35,4.72,2.66,7.84,7.79,8,4.54.11,8.61-4.3,9.65-10.75-3-2.08-5.85-5.21-9.21-6C698.42,371.16,694.47,375.88,694.86,381.05Zm119.48,15.21c-3,.54-5.41,4.13-8.08,6.35l.24,3.2c2.53,1.63,5,4.35,7.62,4.63,4.23.44,6.89-2.53,6.88-7S818.51,395.51,814.34,396.26Zm-64.83-76.43c-6.86.27-11.33,5.31-11.19,12.58s4.86,11.94,11.87,11.85,11.58-5,11.54-12.19C761.69,324.51,756.74,319.55,749.51,319.83ZM865.3,484.24c-1-.29-4,2.49-4.09,4-.11,1.9,1.85,3.91,3.87,7.63,2.48-3.48,4.92-5.41,4.77-7.12S867.2,484.81,865.3,484.24Zm5.41,26.26c-.24,1.16,2.63,4.17,4.11,4.18,1.82,0,3.64-2.26,6.68-4.41-3.06-2.29-5.07-4.82-6.32-4.49A7.3,7.3,0,0,0,870.71,510.5Zm-19-41.76c.35,1.9,2.56,4.56,4.28,4.8s3.63-2.24,7-4.61c-3.44-2.2-5.33-4.33-7.19-4.3C854.28,464.65,851.46,467.56,851.67,468.74Zm-26.78-41.52c.28,2.14,3.32,3.92,5.16,5.86,1.85-2,4.93-3.79,5.19-5.95.25-2-2.55-4.33-5.32-8.46C827.31,422.85,824.63,425.23,824.89,427.22Zm-28.2-55.07c-5.3.23-8,3.57-7.77,8.79s3,8.2,8.41,8.06c5.64-.15,7.53-3.75,7.9-8.67C804.68,375.13,802,371.91,796.69,372.15ZM326.56,1093c11,1.77,22,3.1,33.19,3.78.3-1.73.65-3.45,1-5.17-7.15-.58-14.13-1.19-21.08-1.94-1.58-.17-3.92-2.62-4.19-4.29-.33-2-.63-4.09-.91-6.13-.37.53-.76,1-1.11,1.59q-1.64,2.49-3.15,5.09c.14,1,.28,2,.43,3l-1.92-.39C328,1090,327.28,1091.46,326.56,1093ZM142.24,618.6c2-14.11,10.28-23.94,24-28.31,20.89-6.65,41.21-3,60.94,4.78,32.34,12.77,54.09,36.3,68.83,69.69-10.87-7.59-19.58-14.81-29.33-20.13-8.47-4.63-17.92-7.85-27.29-10.37-10.65-2.87-20.84-.22-30,6.12-5.17,3.6-10.18,7.53-15.63,10.64-12.45,7.09-25.35,7.23-37.08-1C146.19,642.68,140.38,631.76,142.24,618.6Zm36.18-5.15c-1.82,14.49,11.61,24.65,26.36,20.28,8.45-2.5,17-5.52,25.67-6.18,17.38-1.32,32.08,6.69,46.41,15.68-16.09-24.13-38.08-39.93-66.44-46.33-4.45-1-9.35-.78-13.94-.28C186.69,597.7,179.53,604.68,178.42,613.45Zm-17.09,31.67c10.65,6.56,25,5.21,33.53-3.14-26.73-6.78-29.63-33.14-11.28-48.06-13.58-1.26-28.85,7.89-32.92,19.73S151.24,638.9,161.33,645.12Zm192.09,463.36c3.14-.91,4.68-2.48,5.34-5.4-11.32-1-22.61-2.75-33.88-4.71.12,2.32,1.6,4.37,4,6.22a25.41,25.41,0,0,0,7.39,4c3.19.46,6.38.88,9.58,1.24A35.3,35.3,0,0,0,353.42,1108.48ZM991.21,958.76a13.2,13.2,0,0,0,5.71,1.17c7.59-.15,13-5.88,12.94-13.65s-5.61-13.37-13.24-13.35c-7.4,0-13,5.91-12.92,13.66a14.63,14.63,0,0,0,1.16,5.66c.5.5.95,1,1.46,1.52C988,955.4,989.58,957.09,991.21,958.76Zm178.21,126.4c-.7-1.86-2.61-3.23-4.14-4.8-1.84,9.25-5.73,9.69-21.48,11.06-1.73.15-3.46.22-5.2.26.41,1.75.78,3.51,1.09,5.27a310.4,310.4,0,0,0,33-3.69c-.55-1.55-1.22-3.15-1.88-4.7l-1.42.28c.13-.95.25-1.88.38-2.82ZM685.88,396.22c-2.61.36-4.88,3.26-7.31,5,0,1.09-.05,2.19-.08,3.28,2.59,1.82,5.29,5.18,7.75,5s6.07-3.58,6.61-6.12C693.79,399,690.47,395.6,685.88,396.22ZM457.05,956.88c-.07,5.68,4,10,9.48,10a9.54,9.54,0,0,0,9.51-10c-.07-5.75-4.12-9.68-9.84-9.53C460.85,947.5,457.12,951.38,457.05,956.88ZM431.11,971.2c2,2,3.75,5.24,6.08,5.75,1.72.37,4.2-2.79,7.83-5.47-3.52-2.85-5.87-6.14-7.62-5.84C435.05,966,433.18,969.21,431.11,971.2Zm19-160.76c-.19,5.11,2.46,8.66,7.83,8.84s8.13-2.85,8.63-8.3c-.31-4.87-2.42-8.43-7.92-8.64S450.35,805.29,450.15,810.44ZM656.8,454.32c2.24-.65,5.05-3.56,5.28-5.7s-2.59-4.38-5.26-8.38c-2.85,3.94-5.47,6-5.72,8.27C650.75,451.78,652.55,455.56,656.8,454.32ZM509.16,840.64c-.07,2.3,2.79,4.7,5.65,8.94,2.81-4.13,5.82-6.66,5.44-8.48-.49-2.37-3.66-4.18-5.69-6.23C512.63,836.79,509.22,838.66,509.16,840.64Zm224.32-485.3c.14-5.74-3.83-10-9.34-10.07-5.27-.06-9.19,3.77-9.45,9.22-.27,5.85,3.39,10.07,9,10.35S733.34,361.19,733.48,355.34Zm51.86-.37c0-5.75-4.16-9.88-9.68-9.69s-9.27,4.42-9.09,10.3c.17,5.46,4,9.33,9.31,9.29C781.54,364.84,785.37,360.84,785.34,355Zm44.23,210c21.06,12.88,27.39,32.4,24.41,55.48-1.05,8.14-2.17,15.15,4.92,21.17,1.94,1.64,2.75,4.83,3.65,7.46a44.3,44.3,0,0,1,1.73,6.72c-1.9-.54-3.78-1.1-5.65-1.71-.19-.87-.37-1.74-.64-2.58-1.43-4.57-4.72-8.56-7.64-13.65-2.72,4.09-4.93,7.49-5.88,11.11q-2.88-1.11-5.75-2.27c9.43-12.86,12.63-26.89,10.62-42.44-1.94-15-8.83-27.13-24.87-35.84.37,6.75-1.19,13,1.23,16.48,10.26,14.66,10.49,29.37,3.49,45.09a13,13,0,0,0-.74,7.2c.35,1.88.78,3.75,1.29,5.71q-4.5-2-8.88-4.27c-.42-1.45-.83-2.89-1.29-4.33a215.49,215.49,0,0,0-18.39-40.74c.19-.46.35-.94.57-1.38,1.16-2.35,2.14-4.73,3-7.12,2,3.31,4.07,6.64,6.13,10.07,9.5-13.82,12-31.61,9.25-47.38a27,27,0,0,0,1.6-5q.62-2.41,1.21-4.83c.09.32.21.61.3.94,1.7,6.48,1.75,13.38,3,20C826.66,561.07,827.84,563.89,829.57,565Zm-10,23.71c-1.61,5.22-5.08,10.5-4.16,14.86,1.55,7.33,5.88,14.08,9.48,22C831.73,611.46,829.69,596,819.57,588.66Zm332.08,513.91c-3.57.48-7.13.82-10.68,1.11,1.21,4.52,3.16,4.93,11,6,.47.07,1,.16,1.46.25,1.32-.16,2.64-.3,4-.49l1.43-.22c5.38-2.43,11.66-4.49,14.43-8.74a3.54,3.54,0,0,0,.48-1.37C1166.41,1100.42,1159,1101.6,1151.65,1102.57ZM635.41,655.23A37.18,37.18,0,0,1,644,637.8c3.36-3.91,4-6.84,2.88-11.67-5.48-23,2-46.81,18.92-57.75,6.38-4.11,8.06-8.52,8.54-15.64a72.2,72.2,0,0,1,2.42-14.51q1.14,4.34,2.27,8.65a3.85,3.85,0,0,0,.64,1.26c-2.82,17.38.86,36.14,9.79,46.63,1.87-3.14,3.56-6.33,5.41-9.37.32.8.62,1.61,1,2.4a34.6,34.6,0,0,1,2.26,7.29,239.56,239.56,0,0,0-13.23,27.25c-2.16,5.33-4,10.67-5.67,16-3,1.73-6,3.36-9.14,4.85,1.53-6.46,2.12-12.58-1.2-19.52-5.5-11.47-4.63-24.26,3.36-34.6,5.25-6.81,4.07-12.55,1.31-19.79-14.47,8.17-21.33,20.85-23,36.48-1.58,15.14,1.62,28.8,11,41.12-1.91.75-3.82,1.5-5.75,2.15l-.35.11c-.81-3.54-2.61-6.69-5-10.17a25.81,25.81,0,0,0-8.83,14.48C639.52,654.09,637.47,654.66,635.41,655.23Zm39.83-29.61c2.35-5.43,3.62-10.35,6.34-14.26,5.86-8.47,3.54-15.4-2.65-22.14C670.07,597.76,668.39,612,675.24,625.62ZM843.67,454.3c4.23,1,5.82-2.85,5.28-6-.38-2.28-3.06-4.17-6-7.79-2.58,3.83-5.57,6.37-5.17,8.16C838.31,450.92,841.28,453.71,843.67,454.3Zm-359,364c-1.92,2.64-5,5.07-5.5,8-.8,4.38,1.86,7.63,6.83,7.67,4.59,0,7.31-2.94,6.78-7-.38-3-3.07-5.64-4.72-8.45ZM648.39,469.19c.26-1.66-2.1-3.73-4.35-7.26-2.27,3.52-4.42,5.42-4.41,7.3,0,1.54,2.91,4.52,4,4.29C645.52,473.1,648.12,470.94,648.39,469.19Zm249.51,461q-2.82-8.92-5.13-18l-5.34-3.74c-.31.76-.74,1.27-.61,1.55A116.49,116.49,0,0,0,897.9,930.18Zm152-119.45c-.05-5.1-2.77-8.48-8.24-8.37s-8.1,3.26-8.1,8.52,3,8,7.92,8.53C1047.11,819,1049.93,815.87,1049.88,810.73Zm-35.78,23c2.93-.44,5.47-3.42,8.18-5.25,0-1,.05-2.11.07-3.16-2.63-1.94-5-4.94-7.94-5.59-4.3-1-7.07,2.14-7.25,6.5C1007,830.8,1009.27,834.48,1014.1,833.74Zm7.59-344.65c.25,7,5.34,12,12.1,11.82s11.49-5.21,11.47-12.36-4.9-12.17-11.66-12.18C1026.53,476.37,1021.42,481.82,1021.69,489.09ZM964.18,847.4c-3.56-2.25-5.67-4.63-7.31-4.34s-3.78,3.08-4,5c-.17,1.18,2.77,3.95,4.27,3.92C959,852,960.77,849.75,964.18,847.4Zm20.94-.63c2-1.8,5.56-3.47,5.73-5.43.2-2.3-2.5-4.87-5.05-9.21-3,3.92-6.21,6.24-5.95,8.08C980.18,842.6,983.24,844.6,985.12,846.77Zm64.78-386.2c6-.3,8.72-4,9-9.56a9.44,9.44,0,1,0-18.85.08C1040.25,456.92,1044.26,460.85,1049.9,460.57ZM1015,521.37c8.88-9.35,22.14-4.87,24.06,8,.87,5.82,0,13.26-3.09,18-10.87,16.88-14.43,34.76-11.49,54.41-13.73-18.41-22.47-38.31-18.65-61.43A38,38,0,0,1,1015,521.37Zm1.15,6.25a31.67,31.67,0,0,0-5.35,12c-2.64,14.48.33,28.24,7.33,41.53.11-12.76,7-22.67,12.58-33.15a40.22,40.22,0,0,0,3.89-11.91c1-5.56-1.17-10.28-6.41-12.82S1018.91,523.71,1016.19,527.62Zm52.39,443.57c-.07-2-3.31-5.45-5.23-5.5s-5.4,3.11-5.61,5.14c-.24,2.29,2.39,4.88,3.78,7.34l2.81.1C1065.87,975.9,1068.66,973.49,1068.58,971.19Zm2.68-548.94c.22-2.35-2.41-5-4.89-9.41-3,4-6.13,6.28-5.91,8.18.29,2.41,3.28,4.49,5.1,6.71C1067.59,425.92,1071.07,424.24,1071.26,422.25Zm60.44,204.3c1.72.31,4.09-3,7.88-6.15-4.12-2.58-6.63-5.37-8.91-5.19-1.94.16-5.39,4.16-5,5.68A9.06,9.06,0,0,0,1131.7,626.55ZM1146.09,599c-.29-1.75-2.93-3.13-4.55-4.67-1.42,1.5-3.9,2.94-4,4.5-.09,1.82,1.92,3.75,4.16,7.56C1144.08,602.64,1146.35,600.61,1146.09,599ZM376.43,640.78c-.32,4.63,1.93,8.23,6.74,7.65,2.92-.35,5.54-3.2,8.3-4.92l.15-3.26c-2.58-2-4.9-5-7.8-5.76C379.61,633.46,376.73,636.36,376.43,640.78ZM354,598.93c.21,1.76,2.8,3.24,4.36,4.84,1.47-1.44,4-2.78,4.13-4.33.16-1.83-1.75-3.84-3.83-7.79C356.11,595.35,353.77,597.29,354,598.93ZM369,615.18c-2.36.55-5.34,3.66-5.65,6-.23,1.68,3.5,5.49,5.4,5.45,2.36,0,4.65-3.1,8.55-6.06C373.4,617.86,370.81,614.76,369,615.18Zm29,45.26c-.21,5.41,3.43,8.29,8.38,8.24,4.52,0,8.06-2.5,8.05-7.8s-2.65-8.23-7.46-8.72C401.06,652.27,398.2,655.38,398,660.44Zm644.9,296.74c.09-5.84-3.82-10-9.48-9.8-5.87.19-9,3.48-9.37,9.22a9.46,9.46,0,0,0,9.15,10.31C1038.67,967.08,1042.81,962.93,1042.9,957.18Zm50.67-305c-5.4.12-7.82,3.49-8,8.9.42,5,3.1,8.27,8.39,8.14s8.09-3.54,8-8.73S1099,652.06,1093.57,652.18ZM916.45,351.1a36.21,36.21,0,0,1,.75,12.47,15.91,15.91,0,0,1-14.36,14.8c-7.11.71-14.35-4.57-16.65-12.3-2.91-9.79-.23-18.91,3.69-27.79,5.29-11.93,13.89-21.25,23.94-29.62C911.1,323.25,912.68,337.18,916.45,351.1Zm-5.34-2.69c-1.34-8.4-3.43-16.68-5.4-25.92a57.81,57.81,0,0,0-14.93,31.82,25.73,25.73,0,0,0,.31,9c1.16,5.2,4.14,8.8,10.11,8.73,5.73-.08,9.59-3,10.28-8.47A54.71,54.71,0,0,0,911.11,348.41Zm314.54,608.07c26.55,42.67,47.32,87.33,79.54,125.75-14.55,2.38-28.17,4.31-41.66,6.88-23.7,4.53-47.28,9.84-71,14.39-.42-1.89-1.12-4.28-2-7.4,21.07-4.06,42-8.75,63.12-12.79,12.07-2.3,24.19-4.37,36.55-6.59a18,18,0,0,0-1-2.58c-13.86-21.91-27.89-43.73-41.59-65.74-13.94-22.4-26.91-45.42-41.47-67.4-27.34-41.23-65.7-65.84-115-72.51-17.86-2.42-35.71-2-53.49,3.3a23.93,23.93,0,0,0,10.42,3.29c16.78.75,33.81-.36,50.33,2.07,42.83,6.32,74.91,30.54,99.17,65.21,13.23,18.9,24.61,39.11,36.57,58.88,13.77,22.73,27.26,45.62,41,68.6a41.49,41.49,0,0,1-4.1,1.32c-20.7,5-41.37,10-62.11,14.83q-10,2.29-20,4.32c-.43-1.68-.85-3.36-1.33-5,5.28-1,10.39-2.09,15.48-3.26a6.92,6.92,0,0,0,4.23-4.54c2.56-15.11,3.33-30.29-1.63-45.08-1.44-4.29-3.39-9.72-6.82-11.8-11.64-7-24-12.8-38.17-20.09,8.65,18,11.54,35.86,11.51,54-1.56-.57-3.13-1.12-4.71-1.63,0-17.25-3.19-34.05-11-50.07-1.09-2.23-2.56-5.15-4.56-5.92-12.26-4.75-24.73-9-38.92-14,12.92,24.27,16.37,48.23,14.77,72.23-1.61.54-3.22,1.1-4.82,1.7a147.37,147.37,0,0,0-2.15-39.8c-2.1-10.81-5.3-21.51-14.18-31.38.67,11.4,1.25,21.07,1.86,31.32l-27.31-4.56a141.78,141.78,0,0,1,.32,47.65c-1.46-.91-2.89-1.84-4.32-2.79a120.27,120.27,0,0,0-.85-41.17c-.28-1.44-2.11-3.69-3.22-3.69-11,0-22.07.45-33.49.77.15,3.29.16,6.48.09,9.61-1.94-2.61-3.79-5.3-5.54-8.11,0-.2,0-.39-.06-.59l-.25.08c-1.23-2-2.4-4-3.53-6.15a177.69,177.69,0,0,1,63.08-1.52c2.19.34,4.43.44,7.82.76-1.51-11.06-2.39-21.29-4.37-31.31-9.2-46.42-32.95-82.52-75.7-104.67-3.11-1.61-7.19-1.36-10.82-2-.3.8-.61,1.59-.91,2.39,55.55,24.81,79.33,70.65,86.11,129.18-7.2-1-13.37-2.07-19.59-2.69-16.77-1.69-32.89.2-48.68,4.13-.87-1.59-1.78-3.16-2.75-4.7,19.75-5.05,40-6.67,60.85-3.37a23.85,23.85,0,0,0,4.31-.18c-.93-5.35-1.62-10.2-2.63-15-10-47.38-34.72-83.33-80.35-102.75a19.12,19.12,0,0,0-11.89-.66,276.84,276.84,0,0,1-39.52,8.55c-.44-2.45-.87-4.9-1.27-7.36,4.73-.66,9.47-1.41,14.25-2.37,32.2-6.43,62-19.42,91.14-33.82,33-16.28,66.23-31.78,102.84-38.26,5.84-1,11.7-1.93,18.2-3-11.7-30.35-28.59-55.71-53.2-75.61-17.37-14-37.15-23.22-58.8-28.5-3.8-.92-7-1.29-7.08,4.62,53,11.14,86.72,44.9,109.21,92.63-2,.68-3.33,1.13-4.64,1.54-21.61,6.74-43.74,12.17-64.7,20.54-30.38,12.11-59.65,27-89.87,39.54A241.67,241.67,0,0,1,953,870.52c-.27-1.74-.52-3.47-.77-5.21,26.84-4,52.31-13,77.33-24q49.73-21.9,99.86-42.81c9.37-3.9,19.49-6,29.35-9-11.24-21.14-51.36-35.93-68.4-25.33,6.26,3.57,10.8,8.2,11.09,15.87a23,23,0,0,1-17.3,23.43c-11.2,3-24-3-29.47-13.81-8.93-17.6.86-39.56,20.29-45.75,21.64-6.88,41.49-1.75,60.61,8.71,1.66.91,3.35,1.77,5,2.65-19.94-25.34-44.58-43.27-76.2-50.48-3.79-.86-6.58-.37-8.67,3.62a133.69,133.69,0,0,1-9.67,15.39c-24.52,34.42-55.77,60.71-94.35,78.28-2.09,1-4.19,1.83-6.29,2.7q-.4-4-.79-8.06c40.84-17,74.09-45.47,100-84.07,17.81-26.49,27.08-56.75,34.21-87.73,8.76-38.06,10.23-76.92,13.9-115.56,3.32-35,9-69.64,22.56-102.42,3.41-8.25,7.9-16.05,12.41-25.09-5.61,0-10.4-.07-15.2,0Q989.2,384,901.28,470.55c-4,3.92-3.72,6.83-.06,10.62,59.23-58.86,130.09-89.79,214.61-92-4,9.58-7.55,17.18-10.38,25-11.43,31.7-17.1,64.54-19.81,98.06-2.33,28.89-4,58-8.65,86.52-7,42.44-19.44,83.19-44.68,119.15a198.71,198.71,0,0,1-68.88,61.44q-9.7,5.26-19.58,9.49l-.51-5.19a206.85,206.85,0,0,0,61.31-40.64c17.62-16.81,32-36.2,41.73-58.3,20.66-47,30.35-96.6,32.65-147.85,1.41-31.56,4.18-63.07,12.37-93.77,3.06-11.44,6.66-22.74,10-34.1a33.74,33.74,0,0,0-8.6,9.8c-15.61,25.32-20.63,53.88-25.41,82.58-6.81,40.81-12.21,82-21.48,122.23-12.34,53.68-40.06,98.43-86.76,129.79-5.81,3.91-11.74,7.48-17.76,10.8-.19-1.86-.37-3.72-.57-5.58A234,234,0,0,0,973,736.73c18.64-15.16,35.47-31.85,43.55-55.46,6.2-18.09,9.54-36.29,2.69-54.84-7-18.91-26-27.49-44.42-20.48-18.73,7.14-29.9,28.37-23.7,45.07,3.9,10.54,13.94,17,23.34,14.92,9.74-2.11,16.48-11.54,16-22.63-.13-3.32-.61-6.62-1.07-11.31,9.86,7.24,13.93,16,14.91,26.39,1.41,15.08-3.6,28.8-11,41.32-13.2,22.28-32.1,38.7-53.18,52.55-.19-1.78-.39-3.56-.58-5.34a239.3,239.3,0,0,0,38-33.14c12.2-13.09,20.68-29,21.58-47.64.28-5.79-1-11.65-1.65-18.62-1.82,1.61-2.34,1.84-2.42,2.17-3.56,15.27-12.49,22.54-26.34,21.41C955.57,670,945.8,659.32,944.91,645c-1.46-23.75,16-44.39,38.82-45.92,24.6-1.65,42.89,14.78,44.49,40.21.38,6.12.06,12.27.06,18.41a15.36,15.36,0,0,0,4-6.75c5.7-20.72,12.68-41.21,16.59-62.27,6.79-36.54,11.22-73.52,17.51-110.17,4.59-26.73,12.87-52.27,30.27-73.9,2.42-3,4.95-5.94,7.51-9-1-.57-1.36-.94-1.73-.95a29.23,29.23,0,0,0-3.5.1c-74,5.94-137.69,34.56-190.74,86.7-4.08,4-4.74,7.22-2.61,12.63,22.41,57,30.31,114.94,12,174.93-.42,1.37-.9,2.71-1.34,4.07a50,50,0,0,0-6-3.58c10.56-33.45,12.76-68.13,7.5-103.42-9.36-62.87-37.78-117.94-72.8-169.44-28.1-41.35-59.8-80.25-89.93-120.22-1.49-2-3.14-3.83-5.07-6.17l-19,24.33c-33.5,42.95-67.77,85.34-95.18,132.69-22.49,38.87-42,79-50.61,123.42-8,41.33-7.45,81.1,4.33,118.56a50.81,50.81,0,0,0-5.65,3.53,227.59,227.59,0,0,1-10.83-53c-3.43-43.65,5.36-85.21,21.42-125.46,2.3-5.75,1.44-9-2.83-13.2-46.51-45.86-102.16-73.44-166.47-83.79-9.46-1.53-19.08-2-27.43-2.87,8.14,14.19,17.3,27.52,23.8,42.05,12.66,28.32,15.37,59.14,19.62,89.48,5.31,38,10.34,76.06,22.38,112.71,2.15,6.52,4.66,12.92,7,19.37,1.49-7.27.93-14.24,1.59-21.1,2.42-25,22.2-40.9,46.53-37.72,23.42,3,40.36,26.54,36.14,50.11-2,11.38-11.64,20.46-22.86,21.62-11,1.15-21-4.39-25.07-14.1a76,76,0,0,1-2.45-8.37l-2.14,0c-.43,6.34-1.62,12.74-1.16,19,1.37,18.54,10.22,34.27,22.41,47.32a231.32,231.32,0,0,0,36.27,31.59c-.22,1.78-.43,3.56-.65,5.34a200.37,200.37,0,0,1-44-40.08c-12.69-15.7-20.83-33.38-19.18-54.14.8-10.12,5-18.79,15-25.7-.54,4.37-.92,6.89-1.16,9.43-1.16,12.49,5.94,22.92,16.8,24.72,9.92,1.65,19.86-5.81,23.08-17.32,6.64-23.75-18.36-49.57-43.23-44.64-15.75,3.12-26.93,16.43-28.71,34.78-2.55,26.22,5.46,49.62,21.26,70.05,14.56,18.83,33.39,33.16,53.56,45.66,2,1.21,3.91,2.37,5.89,3.51-.23,1.89-.47,3.79-.69,5.69-47-25.92-80.68-66.43-99-123.37-12.47-38.75-17.66-78.89-23.21-119-3.88-28-7.12-56.3-18.29-82.65-4.66-11-11.06-21.21-16.67-31.78l-2.29,1.07c.34,1.3.57,2.64,1,3.89,15.35,41.57,19.87,85,22.15,128.83,2.54,49,11.75,96.4,31.5,141.58a186.63,186.63,0,0,0,47.25,65.34,210.21,210.21,0,0,0,55.27,35.55c-.19,1.72-.39,3.44-.58,5.16-33.38-14.27-62.23-36.6-85.74-68.25C457,704,448.49,685.89,441.34,666.91c-9.45-25.1-16.68-50.76-19.94-77.24-3.76-30.63-5.55-61.49-8.48-92.23-3.18-33.26-10.56-65.54-23.57-96.41-1.48-3.52-3.24-6.93-5.57-11.87,85.09,2.25,156,33.29,215.08,92,3.3-3.66,4-6.54.2-10.34Q508.29,381.31,380.9,382c-2.48,0-5,.46-7.83.74,4.25,8.86,8.58,16.84,12,25.18,13.48,32.81,18.61,67.49,22.38,102.46,3.69,34.17,6.07,68.56,11.63,102.42,6.05,36.78,17,72.27,38.88,103.49,25.32,36.15,57.13,63,96,79.63-.3,2.78-.62,5.55-.92,8.32a229.77,229.77,0,0,1-37.85-20.58c-28.13-18.85-51.7-42.22-68.31-72-3.19-5.71-6.46-7.64-13.38-6-15.92,3.88-30.76,10-43.59,20-11.27,8.77-21.62,18.72-32.37,28.15.52.63,1,1.27,1.57,1.9,3.81-2.08,7.52-4.4,11.47-6.19,19.37-8.82,39.16-12.85,59.48-3.33,16.62,7.78,23.45,28.32,15.07,44.08-5.77,10.86-19,16.49-30.45,12.93-10.51-3.27-17.81-13.35-15.57-24.31,1.16-5.69,5.85-10.67,8.9-15.91-18.35-8.25-55.43,5.82-66.69,26.53,2,.68,3.92,1.32,5.83,2,20.93,7.37,42.21,13.9,62.71,22.32,28.54,11.72,56.23,25.54,84.78,37.24a219.47,219.47,0,0,0,51.65,14.22c-.18,1.59-.36,3.17-.55,4.76-4.62-.67-9.26-1.43-13.93-2.38-32.86-6.68-62.82-21.23-92.86-35.4-31.34-14.79-63-28.71-96.92-36.61-4-.92-8-1.75-11.89-2.61a13,13,0,0,1,.42-2.18c21-45.5,53.92-77.46,103.47-90.37,1.56-.41,2.77-2.19,4.15-3.33-1.68-.58-3.52-1.93-5-1.62-14.44,3.09-28.3,7.63-41.19,15.19-34.82,20.42-57.36,50.67-72.38,88.59,2.7.5,4.26.85,5.84,1.07a267.3,267.3,0,0,1,72,20.29c28.62,12.72,56.67,26.81,85.56,38.88A254.89,254.89,0,0,0,544.93,877c-.21,1.8-.41,3.6-.62,5.39-.07.58-.16,1.14-.23,1.71A278.48,278.48,0,0,1,503.19,875a13,13,0,0,0-8,.57c-21.68,8.74-40.12,22-54.49,40.55-17.77,23-26.29,49.53-30.35,78.57,6.08-.66,11.35-1.41,16.65-1.79a150.7,150.7,0,0,1,47.8,4.58c-1,1.6-2,3.2-2.91,4.83-21.52-5.1-43.45-6.5-66.5-1-.81-14.75,7.15-45.65,16.67-64.94,14.77-29.92,38-51.09,68.11-65.83-4.1-.6-8.2-.79-11.36.85-42.52,22-66.22,57.92-75.53,104-2.09,10.37-2.91,21-4.32,31.48a18.13,18.13,0,0,0,2.87.36c2.32-.31,4.63-.68,6.94-1a177.48,177.48,0,0,1,60.1,1.59l-.25.44a112.53,112.53,0,0,1-8.34,13.52c0-2.77,0-5.56.1-8.42-10.29-.43-20-.65-29.7-1.32-5.06-.36-7,1.76-7.74,6.51a130.84,130.84,0,0,0-.1,38.21q-2.1,1.39-4.24,2.75c-.54-3.5-1-7-1.3-10.44-1-11.9-.22-24-.22-36.44L391.58,1017c.61-10.44,1.17-20.08,1.74-29.72l-1.37-.54c-2,3.26-4.47,6.32-5.93,9.82-8.32,20-10.71,40.22-8.87,60.57q-2.36-.86-4.76-1.58C370.65,1031,374,1007.15,387,983.1c-14.17,4.93-26.45,9.08-38.6,13.58-1.69.62-3.14,2.76-4.05,4.54-8.57,16.69-11.7,34-11.73,51.6-.76.38-1.52.79-2.29,1.26a7.21,7.21,0,0,1-2.57.84c-.09-17.86,2.67-35.11,10.33-51.9l-1.41-1.21c-11.95,6.27-24,12.43-35.78,18.93-1.81,1-3.1,3.41-4,5.44-7.72,16.64-6.86,34-4.16,51.52.21,1.4,1.36,3.55,2.42,3.79,5.58,1.25,11.18,2.43,16.92,3.6q-.8,2.49-1.51,5c-12.65-2.49-25.23-5.41-37.79-8.45-16.29-4-32.58-7.89-48.1-11.64,9.76-16.28,19.4-32.2,28.88-48.22,11.27-19.07,22.06-38.44,33.69-57.3,14.43-23.41,30.94-45.22,53.34-61.78,33-24.38,70.51-30.93,110.42-27.57,4.66.39,8.63.28,11.9-4.6-39.55-7.64-76.33-2-111.37,16.5-35.77,18.89-57.22,51-77.68,83.86-13.94,22.37-26.1,45.83-39.59,68.49-7.49,12.59-16.05,24.54-24.35,37.11,1.83.5,3.34,1,4.89,1.32,28.48,5.43,56.91,11.19,85.47,16.15,2.93.51,5.86,1,8.79,1.57-.71,2.6-1.41,5.21-2.17,7.79-1.1-.23-2.2-.45-3.29-.69-34.77-7.36-69.89-13-104.86-19.45-.9-.17-1.78-.45-3.78-1,32-38.54,53.1-83.11,79.66-125.72C185,949.29,118.12,906.66,68.35,834.36a41.86,41.86,0,0,1,4.53-3.15c29-14.49,51.67-36.68,73.79-59.78,15.34-16,30.83-32.22,48.06-46.1,42.25-34,90.61-40.91,142.5-28.33,2.49.61,5,1.32,7.46,1.91.39.1.88-.19,2.15-.51-27-25.14-33.19-59.61-43.35-92.3-2.43-7.8-5.21-15.52-8.3-23.09-6.82-16.7-17.79-30.09-34.72-40.26,22.46-13.69,45.86-18.39,70.29-19.38s47.73,5,71.33,15.52c-1.42-29.19-4.58-57.09-10.66-84.59s-14-54.22-33.05-77.7c27.81-3.93,53.75-2.21,79.64,2.07a300.65,300.65,0,0,1,75.46,23.2c.45-2.28.92-4,1.11-5.68,1.56-14.06,7.41-26.49,14.55-38.42,3-5,5.9-10.14,9.3-14.89,14.47-20.18,14.66-42.79,11.58-66-.29-2.26-.45-4.54-.77-7.86,55,7.71,100.6,29.53,131.75,77.43l69-88.6,69.08,88.63C850,298.58,895.71,276.82,950.65,269c-.58,7.47-.72,14.19-1.66,20.81-2.8,19.53,2.35,36.94,12.72,53.39,6.47,10.27,12.76,20.78,17.75,31.81,3.69,8.15,5.15,17.31,7.71,26.41,48.48-21.29,99.26-31.1,154.19-25.11-3,4.36-5.22,7.72-7.53,11-15.45,22.06-21.61,47.68-26.4,73.38-4.36,23.41-6.23,47.28-9.13,71a61.8,61.8,0,0,0,0,6.9c47.64-21.09,94.1-20.81,140.6,4.91a26.33,26.33,0,0,0-2.56,1.25c-20.94,13.14-31.16,33.6-38.19,56.19-5.14,16.52-9.85,33.19-15.28,49.62-5.95,18-15.18,34.12-29.91,48.14,2.11,0,3.13.21,4,0,68.26-19.19,125.86-1.09,174.38,49.49,17.48,18.23,34.64,36.92,53.5,53.65,13,11.52,28.65,20,43.12,29.87,1,.65,1.87,1.35,3.72,2.69C1382,906.61,1315.21,949.12,1225.65,956.48Zm-983,94.94,1.35.82,13.82-10-7.34-4.65Zm8.44,1.84-18,13.59,18,4.22Zm36.78-24.94c-8.08,5.41-17.44,11.45-26.54,17.86-4.74,3.33-7.79,20-4.89,25a4.64,4.64,0,0,0,2.69,1.83c9.23,2.35,18.49,4.57,28.74,7.08Zm4-8.22-21.14-18.43-17.29,30.52c4,3.79,7.62,7.3,12.72,4.25C275,1031.2,283.45,1025.51,291.9,1020.1Zm46.42-24.5c-18.58-9.82-28.88-25.26-37.12-44.37-8.62,14.25-16.14,27.13-24.17,39.68-2.85,4.44-2.51,8.18,1.07,11.08a169.56,169.56,0,0,0,17.68,12.19,7.18,7.18,0,0,0,5.9,0C313.42,1008.47,325,1002.42,338.32,995.6Zm46.11-17.34c-23.67-16.36-39.45-38-48-67.5-10.46,12-19.86,22.53-29,33.35-1,1.23-1,4-.48,5.81,5.7,18.5,17.26,32.32,34.15,41.67,1.48.82,3.71,1.5,5.14,1C358.84,988,371.32,983.22,384.43,978.26ZM404,942.71c-1.24-7.11-9-13.1-13.86-19.58a7.42,7.42,0,0,1-.79-1.16c-5.15-10.43-10.3-20.85-16.11-32.64-8.75,5-17.95,10.38-27.23,15.6-3.9,2.19-4.69,4.83-3.31,9.22a117.52,117.52,0,0,0,32.85,51.48c5.3,4.91,12.14,8.16,19.28,12.82,1.21-5.25,1.88-8.87,2.89-12.4C400,958.2,405.21,949.91,404,942.71Zm24.15-41.3c-3.18-6.11-6.09-12.15-9.49-17.91-.9-1.53-3.47-3.27-5-3-11,1.72-21.9,3.91-34.31,6.23,5.77,19.88,14.15,35.86,27.71,48.85C414.54,923.37,421.5,912.11,428.11,901.41Zm22.17-21.35H421.92l10.14,17.36ZM347.1,772.62c3-.15,4.83-1.59,6.77-2.87,13.49-9,27.86-15.39,44.52-14.39,9.6.58,18.16,3.58,24.35,12.79-2.05.2-3.34.3-4.63.44-12.87,1.49-17.54,10.81-11,22,3.85,6.6,9.72,9.26,17.84,8.11,9.09-1.29,15.56-7,17.84-15.62,4-15-5.53-31.35-20.78-35.57-21.89-6-41.54-.34-59.61,12.13C356.91,763.41,352.18,768.26,347.1,772.62Zm77.6,70.92c-3.75,5-7.29,10.09-10.78,15l60,6c-15.5-7.26-30.77-14.46-46.1-21.52A3.34,3.34,0,0,0,424.7,843.54Zm-40.26-14.71c-13.06,12-19.61,27.49-24.32,43.89,15.36-3.83,30.06-7.41,44.69-11.25a8.39,8.39,0,0,0,4.55-3.56c3.55-5.95,6.74-12.12,10.54-19.08-8.46-3.8-17.41-7.62-26.17-11.85C389.88,825.13,387.37,826.13,384.44,828.83Zm-41.09-12.3c-20.16,18.08-32.85,40.62-39.73,66.51-3.63,13.62-6.38,27.47-9.53,41.22l3,1.89c.37-1.16.45-2.54,1.15-3.42A159.87,159.87,0,0,1,350,879.4a7.7,7.7,0,0,0,3.67-3.87c5.87-19.35,12.92-38,29.74-52.83-10.56-3.23-19.75-5.81-28.76-8.9C350,812.22,346.85,813.39,343.35,816.53Zm-52,2.58c-30.75,30.91-41,69.18-41.13,111.22,0,1.49,2.89,4.1,4.65,4.3,9,1,18.15,1.4,27.22,2.16,4.1.34,5.42-1.24,6.18-5.35,2.88-15.61,5.76-31.26,9.72-46.61,5.85-22.61,15.22-43.68,31.15-61.24,3.71-4.1,8-7.71,13.3-12.82-6.89-1-11.88-1.21-16.49-2.63C311.74,803.74,301.34,809.09,291.37,819.11ZM204.5,742.22l-39.27,37.11c8.44,14.43,18.18,25.69,30.53,34.47,2.81,2,7.17,4.11,10,3.32,13.47-3.71,26.67-8.41,41.21-13.17C224.25,789.36,210.8,769.28,204.5,742.22Zm5.93,2.81A85.94,85.94,0,0,0,242,794.16c7.29,5.68,14.47,9.1,24.4,6.72,8.52-2,17.63-1.61,26.48-2.29,1.67-.13,3.33-.37,6.53-.73-27-20.94-42.67-47.25-49.07-81.56-12.94,7.19-24.61,13.77-36.38,20.16C210.24,738.47,209.43,740.89,210.43,745ZM161,785.33l-28.56,30.18c4.5,4.5,8.64,9.22,13.43,13.16,2.07,1.7,5.72,2.93,8.22,2.39,13.65-2.91,27.18-6.44,40.34-9.65Zm-32.57,33.45c-8.49,6.2-16.54,12.08-24.58,18,.22.47.44.94.67,1.41L143,834.05ZM98.89,843l22.81,23.42c3.17-8.41,6.33-16.76,9.57-25.34ZM129,874.58c9.39,7.84,19.05,15.35,30.1,24.13,1.67-26.43,9-48.75,24.67-68.81-14.35,3.07-27.33,5.75-40.24,8.71-1.85.42-4.22,1.85-4.93,3.44q-5.88,13.25-10.89,26.86C127.16,870.48,127.81,873.56,129,874.58Zm35.55,22.15c-.06,1.85.61,4.75,1.88,5.46,11.52,6.43,23.26,12.49,36.58,19.52-.71-42.89,11.34-78.77,38.45-110.72-16.32,5.28-31.39,10.11-46.4,15.1a9.66,9.66,0,0,0-3.84,2.91C174.3,848.39,165.44,871,164.58,896.73Zm43.57,21.41c0,1.8,1.08,4.75,2.31,5.16,11,3.64,22.1,6.83,34.28,10.48.78-51.78,13.88-96.72,55.09-130.54-8,.42-16.08,1.27-24.11,1.18-17.91-.21-30.73,8.65-40.47,22.54C216.11,854.28,207.37,884.85,208.15,918.14ZM320.46,760.87c-11.55-14.23-17.32-31.27-20.37-49.69-15.37-1-30,.43-44.68,5.31,6.49,36.11,25.18,63,55.83,82.72,3.67-8.15,6.37-15.66,10.33-22.44C325.08,770.76,325.14,766.64,320.46,760.87Zm37.48-35.59c-16.3-7.94-33.46-12.14-52.48-13.64,2.93,19.79,10.31,36.36,22.51,51Zm10.19-9c-41.83-19.35-84.2-23.83-127.84-8.55-28.19,9.87-49.82,29.13-70.4,49.85-18.46,18.58-36.59,37.54-55.88,55.22-10,9.19-22.3,16-34.91,24.79,9.21,10.86,18,22.35,27.92,32.73q67.67,70.74,165.46,78.37c4.88.38,8.87.07,10.07-6.56-81.82-2.65-143.5-42.37-194.93-102.58,1.77-1.12,3.06-2.1,4.47-2.82,22.7-11.55,40.7-28.71,58-47,16.39-17.28,32.73-34.94,51.16-49.87,48-38.87,101.19-43.75,157.48-19.77C363.53,722.15,366,721,368.13,716.31Zm55.22-26.85c-9.66-4.47-20-8.24-29.32-13.75-21.47-12.71-35.55-31.94-45.52-54.51-5.85-13.23-11.67-26.51-18.35-39.33-6.32-12.16-15.34-22.14-28.41-27.9,12.64,19.25,18,41,24.25,62.59a358.1,358.1,0,0,0,12.61,36.35c9.27,22.56,25.39,38.33,48.73,46.23,2.37.8,5.31,2,7.38,1.29C404.68,697,414.42,692.94,423.35,689.46ZM404.76,569.12c-.52-5-2.51-8-6.84-10.34a127.69,127.69,0,0,0-50.68-15.17,154.8,154.8,0,0,0-47.08,3c17.35,8.14,28.35,20.27,35.95,35.39,5.86,11.68,11.23,23.63,16.36,35.66,10.2,23.93,25.29,43.65,48.35,56.38,9.47,5.23,19.26,10.19,31.53,11.38-3.79-10.56-7.56-20-10.61-29.71C412.87,627.46,407.77,598.47,404.76,569.12Zm-8.23-24.56q-56.83-25.41-115.35-4a41.66,41.66,0,0,0-5.32,2.9c22,20.58,28.24,39.6,36,64,5.72,18,10.91,36.31,17.94,53.84,8.4,20.94,23.47,36.28,44.27,45.79,4.74,2.16,8.28,2.07,11.46-2-.1-.41-.09-.77-.22-.84-1.67-.81-3.33-1.65-5-2.36-18.66-7.76-33.17-20.37-41.94-38.53-6-12.36-10.64-25.41-15.17-38.4-3.46-9.91-5.62-20.27-8.67-30.33-5.55-18.29-13.55-35.3-28.48-49.86,41.18-10.85,79.7-9.33,116.82,10.68C403,547.76,403.09,547.49,396.53,544.56ZM665.87,358.37c-16.26-24.58-37.32-43.76-64.29-55.86-9.64-4.32-20-7.09-31-10.91,0,3.78-.07,5.62,0,7.45.79,19.29-4.32,37-14.12,53.51-4.42,7.43-8.89,14.85-13,22.45-5.45,10-9,20.7-8.3,32.19a12.45,12.45,0,0,0,4.67,8.15c13.76,10.07,28.13,19.33,41.74,29.6,8.53,6.43,16.07,14.17,24.17,21.41a10.35,10.35,0,0,0,1.46-1.7c16.61-34.44,37.24-66.45,59.25-97.61C668.94,363.49,667.76,361.24,665.87,358.37ZM672.58,348c-15.47-23.43-36.34-40.7-61.3-53.15A178,178,0,0,0,557.45,278c.36,5.27.55,9.89,1,14.48,2.38,23.95-6.5,44.37-19.41,63.72-8.76,13.13-15.59,27.14-17,43.27-.48,5.33,1,8.62,7.83,9.32-.65-20.37,8.65-36.83,18.91-52.91,12.19-19.1,18.88-39.59,16.16-62.54a67.17,67.17,0,0,1,0-7.3c47.18,7.94,81.39,33.7,107,71.91C677.33,354.31,674.62,351.08,672.58,348ZM965,407.4c.57-14.58-4.73-27.59-12.37-39.58-14.43-22.66-26.19-46-22.61-74.58a23.83,23.83,0,0,0-4.1,0c-40.09,9.39-70.41,32.43-92.46,66.75-1,1.64-.52,5.34.67,7.18,8.21,12.76,17.27,25,25.15,37.95,12.13,19.94,23.54,40.32,35.39,60.75a13.37,13.37,0,0,0,2.38-1.63,326.6,326.6,0,0,1,64.3-49.54C963.32,413.54,964.86,409.94,965,407.4Zm13-8c-.56-3-.27-6.3-1.49-8.94-6.42-13.94-12.17-28.34-20.08-41.41-11.76-19.42-17.23-39.72-14.34-62.25.35-2.71.34-5.47.63-10.48-15.87,5.06-30.82,8.76-44.92,14.53-29,11.87-52.78,30.78-70.29,57.09-2.14,3.22-5,6.71.78,9.78,25.87-38.28,59.94-64,106.92-71.66a68.68,68.68,0,0,1,0,7.31c-2.77,22.71,3.82,43,15.85,61.91,10.36,16.28,19.89,32.9,19.24,53.56C976.88,407.93,979,404.83,978,399.44ZM1079,747.12a30,30,0,0,0-22.48,32.11,21.57,21.57,0,0,0,25.09,19.52c7.87-1.23,14.16-9.15,14-17.67-.11-7.62-4.49-11.52-13.93-12.43-1.25-.12-2.49-.32-3.73-.48l-.92-2.31c5.47-3.07,10.59-7.46,16.46-9,22.32-5.74,40.68,4.49,59.43,17.51C1136.7,752,1104.36,740.55,1079,747.12Zm159.74,299.06c-8.91-6.26-18.09-12.15-26.4-17.69V1080l25.17-6a18,18,0,0,0,3.35-1,6,6,0,0,0,2.67-1.9C1246.47,1066.23,1243.46,1049.48,1238.77,1046.18Zm28.11,20.56-17.52-13V1071Zm-17.47-29.15-7.35,4.62,14,9.87,1.13-1.13Zm-20.13-35.76L1207.86,1020c7.12,4.5,14.87,8.8,21.91,14,6.41,4.76,11.47,3.59,17-1.67Zm-67.38-6.28c11,5.57,21,9.63,29.88,15.48,8.18,5.39,14.77,3.92,21.49-1.35a53.73,53.73,0,0,0,9.92-9.72c1.33-1.78,1.89-5.66.85-7.45-7.88-13.42-16.25-26.56-25.43-41.34C1190.11,970.59,1179.76,985.94,1161.9,995.55Zm1.69-84.79c-8.49,29.55-24.78,50.81-48.42,67.79,13.75,4.85,26.21,9.37,38.78,13.55,1.68.56,4.19-.05,5.85-1,16.86-9.4,28.33-23.21,33.5-41.94.44-1.57.26-4-.7-5.14C1183.46,933.29,1174.08,922.73,1163.59,910.76Zm-38-22.41c-6.16,20.65-15.33,37.46-29.17,51.56-.86.88-1.07,3.08-.68,4.41,3.08,10.72,6.39,21.38,9.78,32.59a9.19,9.19,0,0,0,2.21-.45c26.84-13.91,41.53-37.21,50.11-65.13a5.2,5.2,0,0,0-1.71-4.58C1146.38,900.63,1136.42,894.81,1125.6,888.35Zm-44-5.53c-3.53,6.17-6.61,12.6-9.67,18.59l21.16,34.31a102.59,102.59,0,0,0,27.23-49.1c-12-2.24-22.92-4.42-33.91-6.2A5.88,5.88,0,0,0,1081.61,882.82Zm-32-2.84,18.55,17.53c3.26-6,6.17-11.3,9.57-17.53Zm21.75-195.33c32.65-7.59,56-27,71.15-56.53,5.42-10.6,9.87-21.71,14.67-32.63,8.74-19.87,20-37.62,40.08-48,.2-.1.09-.78.16-1.65-33.69-5.69-66.23-3.6-96.44,14-2.62,1.53-4.87,5.62-5.26,8.77-3.64,29.55-8.41,58.85-17.45,87.28-3,9.55-6.82,18.85-10.34,28.45,1,.45,1.19.63,1.38.62A14.07,14.07,0,0,0,1071.31,684.65Zm39.19,15.24c9.48-4.94,19.68-9,28.06-15.45,17.5-13.43,25-33.48,31.4-53.65,8.29-26,12.56-53.39,28.38-76.84-10.37,4.34-18.69,11.31-23.9,20.8-8.19,14.92-15.65,30.28-22.6,45.83-14.25,31.86-35.83,55.59-70.15,66a46.54,46.54,0,0,0-5.87,2.76c10.26,3.94,19.71,7.7,29.26,11.13A7.59,7.59,0,0,0,1110.5,699.89Zm52-24c10.77-16.52,16.16-35.17,21.54-53.81,8.25-28.59,15.69-57.56,40-78.14-1-1.12-1.28-1.61-1.66-1.77-40.83-16.67-81.2-15.09-120.91,3.62-2.53,1.19-3.77,5.11-5.61,7.75l1.66,1.81c37-20,75.43-21.44,116.64-10.58-21.86,21-27.89,47.62-35.5,73.66a336.51,336.51,0,0,1-13.19,37.66c-9.29,21.77-24.81,37.7-47.24,46.35a33.61,33.61,0,0,0-4.06,2.25c3.69,4.63,7.37,4.46,12,2.25C1141.15,699.88,1153.38,689.84,1162.46,675.92Zm9.63,86.74c12.07-14.84,19.74-31.29,22.42-51.08-19.11,1.7-36.3,5.76-52.44,13.73Zm16.6,35.71c26.38-12,51.63-49.15,55.52-81.6-11.4-5-34.58-7.38-43.49-4.89-3.07,9.66-5.18,19.37-9.22,28.18-4.15,9-10.26,17.16-15.36,25.77-.72,1.2-1.3,3.19-.8,4.3C1179.65,779.62,1184.21,789,1188.69,798.37ZM1297,921.78c13.45-7.15,25.2-13.21,36.68-19.72,1.35-.77,1.84-4.07,1.75-6.15-1-24.64-9.36-46.51-25.35-65.35-1.34-1.58-2.81-3.52-4.62-4.13-15.16-5.18-30.43-10.1-47-15.54C1285.79,842.94,1297.63,878.91,1297,921.78Zm-24.09-82.13c-11.88-22.09-28.15-37.16-55.25-35.67-5.84.32-11.71,0-19.36,0a131.23,131.23,0,0,1,44.27,57.23c9.21,22.62,12.33,46.37,12.57,72.43,11.48-3.29,21.51-6.25,31.59-9,4-1.11,5.35-3.42,5.39-7.61A157.26,157.26,0,0,0,1272.91,839.65ZM1341,898c7.19-5.23,13.3-9.47,19.2-14,14.4-11,15.39-15,7.68-31.57a65.46,65.46,0,0,0-6.25-10.1c-1-1.45-2.59-3.08-4.19-3.45-13.37-3.07-26.8-5.87-41.53-9C1332.23,849.84,1339,872.47,1341,898Zm37.68-30.76,24-24.11-33.88-2ZM1396,836.47l-24.44-17.66c-4.35,4.56-8.64,9.08-14.51,15.26l38.73,4C1395.88,837.55,1396,837,1396,836.47Zm-28.21-20.76-28.68-30.33-33.61,36c13.65,3.31,27.6,6.75,41.6,10a5.94,5.94,0,0,0,4.61-1C1357.24,825.67,1362.5,820.64,1367.82,815.71Zm-33-36.44-39.28-37c-6.31,27-19.79,47.16-42.58,61.74,14.44,4.7,27.44,9.15,40.61,13,2.47.72,6.15-.15,8.39-1.63C1315.6,806.33,1326.06,794.28,1334.84,779.27Zm-53.39-45.77c-4.77-2.94-9.55-5.93-14.56-8.4-5.5-2.7-11.28-4.84-17.07-7.28-10.26,39-14.77,46.43-48,79.85,12.87,1.32,25.07,2.86,37.33,3.65a21.45,21.45,0,0,0,11.73-2.52c18.43-11,30.61-27.07,37-47.54C1291.48,739.73,1291.48,739.68,1281.45,733.5ZM1085.68,858.61,1079,847.35c-2.75-4.63-5.89-5.21-11-2.67-12.73,6.38-25.83,12-38.76,18a12.35,12.35,0,0,0-2.39,1.74Zm53.75,14.8c-2.07-15.37-13.4-36.17-24.88-45.3-1.56-1.24-4.5-2.38-6.06-1.75-9.67,3.9-19.13,8.32-29.2,12.81,2.36,3.22,5,5.38,5.73,8.06,3.51,13.12,13.72,15.37,25.1,17.47C1120.05,866.53,1129.6,870.4,1139.43,873.41Zm64.84,52c-2.33-23.45-7.25-45.75-16.62-66.83A122,122,0,0,0,1156,816.16c-1.89-1.66-5.15-3.44-7.23-2.92-10.37,2.56-20.55,5.86-32.32,9.36,17,14.93,24,33.62,29.94,53,.61,2,3.42,3.61,5.54,4.79a160.43,160.43,0,0,1,47.27,39.17C1200.84,921.54,1202.58,923.47,1204.27,925.43Zm8.92,11.87c11.14-.88,22-1.51,32.88-2.85,1.51-.18,3.79-3.83,3.69-5.77-.54-11.18-.85-22.48-2.8-33.46-6.13-34.51-21.06-64.17-49.86-85.59-1.85-1.38-4-3.68-5.88-3.49-10.69,1.11-21.32,2.83-32.73,4.46C1194.32,852,1194.32,852,1213.19,937.3Zm186-73.33c7.75-8.5,14.46-18,21-26.12-14.68-10.94-29.12-19.91-41.36-31.24-20.06-18.57-38.63-38.75-58-58.13-45.93-46.08-100.26-60.32-162.8-42.28-9,2.59-17.52,6.59-26.44,10,3.26,5.78,6.36,5.32,10.65,3.48,37.37-16.09,75.48-19.24,114-4.78,27.29,10.23,49.43,28.24,69.58,48.76,26.78,27.25,49.57,59,87.06,75.25-52.15,61.2-114.12,100.79-195.52,103.31,1.78,7.49,6.55,6.75,11.34,6.37C1296.82,943.06,1353.37,914.23,1399.17,864ZM1123.48,641.25c-.55-3-3.41-5.46-5.24-8.16l-3.39,0c-1.75,2.75-4.55,5.34-5,8.29-.69,4.61,2.38,7.43,7.23,7.22C1121.62,648.44,1124.26,645.33,1123.48,641.25Zm-657-140.36c7.12,0,12-5.26,11.82-12.74-.15-7-5.23-11.89-12.11-11.74s-11.51,5.21-11.43,12.38S459.68,500.91,466.48,500.89ZM603.15,583c.4,1.88,2.74,4.47,4.48,4.65s3.55-2.39,6.83-4.87c-3.51-2.11-5.49-4.23-7.35-4.12C605.61,578.78,602.9,581.82,603.15,583ZM607,612.83c1.55.15,3.37-2.51,6.6-5.19-3.58-2-5.59-4-7.37-3.83-1.48.16-4,3.2-3.7,4.45C602.94,610.13,605.28,612.66,607,612.83Zm24.48,267.36c-.31-2.49-.62-5-1-7.46h-.15c-2.38.6-4.76,1.17-7.18,1.68-3,.63-5.91,1.19-8.86,1.7q-.83,3.93-1.62,7.8Q622.08,882.47,631.48,880.19Zm-18.83,28.42c-1.67,1.1-3.41,2.12-5,3.32-.4.3-.81.58-1.21.87q-2.22,9-5,17.72A127.15,127.15,0,0,0,612.65,908.61Zm7.67,82.25c.21-.19.45-.37.66-.56q4.1-9.42,8.2-18.83v0c-2.77-19.06-.84-38.77,6.89-59.21-.85-4.2-1.55-8.44-2.16-12.69a.08.08,0,0,1,0,.05c-12.35,23.87-15.73,49.28-11.11,75.66.78,4.4-.46,6.92-3.35,9.73-20.72,20.13-43.27,30.07-67.44,31-1.7,1.82-3.41,3.62-5.19,5.38C573.28,1021.84,598,1012,620.32,990.86Zm9.9-502.17c.27,1.78,2.94,3.21,4.57,4.79,1.45-1.52,4-3,4.07-4.58.12-1.81-1.94-3.76-4.13-7.5C632.34,485.05,630,487.07,630.22,488.69Zm-22.22,70c-.26,1.12,2.41,4,3.91,4.15,1.78.14,3.72-1.87,7.35-4-3.42-2.53-5.34-5-6.89-4.82C610.63,554.26,608.44,556.78,608,558.66Zm12.81-48.27c-.27,1.17,2.53,4.31,4,4.31,1.86,0,3.72-2.23,6.83-4.36-3-2.32-5-4.86-6.19-4.55A7.34,7.34,0,0,0,620.81,510.39Zm-7.09,23.86c.37,1.82,2.67,4.33,4.36,4.51s3.46-2.3,6.79-4.81c-3.63-2.11-5.58-4.14-7.39-4C616,530,613.47,533,613.72,534.25Zm295.79,36.41c-6.85-51.25-27.17-97.26-54.2-141-29.82-48.23-63.07-93.9-98.33-138.19-2-2.55-4.12-5.05-7.14-8.74-13.1,16.86-26,32.54-37.92,49-19.57,27.07-39.15,54.17-57.48,82.08-28,42.65-51,87.72-61,138.45-7.5,38.21-7.93,76.25,3.68,113.6,1.44-.53,2.93-1,4.46-1.47-8.31-27.64-10.09-57.22-6.72-88.28,5.27-48.57,23.67-92.57,48.13-134.37,30.66-52.38,67.11-100.64,104.81-148a28.54,28.54,0,0,1,2.63-2.41C761.12,305,772,318.12,781.9,331.9c21.57,30,43.75,59.57,63.66,90.61,26.52,41.33,47.67,85.3,56.79,134.22,6.87,36.82,6.22,72.91-4.2,107.88,1.58.52,3.08,1,4.53,1.6C912.2,635.58,913.92,603.65,909.51,570.66ZM665.29,426.51c-.44,2,2.1,4.72,3.32,7.12l2.54.13c1.47-2.2,4-4.36,4.11-6.62.07-1.95-2.64-4-4.12-6C669.07,422.88,665.75,424.39,665.29,426.51ZM428.8,421.87c-.3,1.55,3.26,5.38,5.2,5.46,2.25.09,4.63-2.81,8.65-5.57-3.91-3-6.41-6.18-8.08-5.8A9.12,9.12,0,0,0,428.8,421.87Zm109.74,425.4c-.11,1.84,2,3.8,4.17,7.52,2.4-3.6,4.79-5.62,4.55-7.24-.27-1.8-3-3.24-4.58-4.84C541.21,844.22,538.64,845.67,538.54,847.27ZM451.1,460.56c6-.43,8.62-4.09,8.74-9.76a9.17,9.17,0,0,0-9.59-9.78c-5.4.13-9.42,4.63-9.19,10.27S445.49,461,451.1,460.56Zm90.49,565.77q-3.69,3.43-7.59,6.74c28.07,3.49,53.56-1.94,76-17.45l6.34-14.64C594.7,1020.43,569.51,1028.2,541.59,1026.33Zm479.88,52.37-22.31-17.77a140,140,0,0,0,26.26,22l.36.23c.08-.2.15-.39.22-.58C1024.49,1081.26,1023,1079.94,1021.47,1078.7ZM503.58,932.91c-7.63-.09-13.18,5.38-13.36,13.19s5.17,13.63,12.7,13.84a13.23,13.23,0,0,0,5.51-1c2.42-2.3,4.68-4.69,6.83-7.13a15.18,15.18,0,0,0,1-5.06C516.46,939,511,933,503.58,932.91Zm-.91,125.85-17.46,14.16c-4,3.25-8.11,6.4-12.16,9.6.16.39.33.79.49,1.19A144.5,144.5,0,0,0,502.67,1058.76ZM475.4,601.2c.25-5.47.71-11,.69-16.42,0-10.71-2.35-20.82-8.19-30-2.49-3.92-5.09-8.07-6.2-12.49-1.15-4.57-1.68-9.87-.52-14.34,3-11.65,14.41-15.06,23.43-7.06a26.91,26.91,0,0,1,7.9,12C499.76,558.69,490.71,580.75,475.4,601.2Zm5.44-20.14,3,.4c2.05-9.18,5.36-18.3,5.77-27.55.36-8-1.68-16.54-4.38-24.23-1.68-4.81-6.49-8.83-12.94-6.67-5.22,1.75-8.34,8.08-6.79,14.48a52,52,0,0,0,4.76,12.3C475.59,559.59,481.88,569,480.84,581.06Z" transform="translate(-68.35 -117.41)"/>
  </g>
  <g id="Being">
    <path d="M1004.29,1077.29c7.19,1.56,14.05,4.62,21,7l.66-1.76c-1.51-1.29-3-2.61-4.53-3.85q-21.76-17.35-43.55-34.68c-27.6-22-50.79-47.63-66.54-79.69-12.5-25.44-19.43-52.44-24.83-80-2.5-12.75-2.67-12.72-15.57-12a17.78,17.78,0,0,0-2.38.55c-2.24,16.57-4,33.4-6.91,50-2.34,13.48-.31,26.09,4.72,38.45,7.43,18.3,14.86,36.61,22.66,54.75,5,11.62,10.67,22.95,16.16,34.66,4.47-1.75,8.31-3.48,12.29-4.73,4.21-1.33,8.58-3.15,12.86-3.09,6.69.11,13.8.45,19.93,2.8,10,3.82,11.5,11.63,6.48,26.72,7.92.64,15.72,1.17,23.5,1.94C988.31,1075.19,996.45,1075.59,1004.29,1077.29Zm-73.74-45.23c-5.34,0-10.18,1.54-14.08,2.85l-2.24.74c-1.21.38-2.38.79-3.53,1.22-.27-.55-.53-1.11-.79-1.66-3.84-8-7.47-15.61-10.83-23.41-7.54-17.53-14.87-35.56-22-53l-.63-1.55c-4.58-11.26-5.91-21.89-4.07-32.47,1.87-10.79,3.29-21.7,4.64-32.32,4.81,23.56,11.66,50.48,24.53,76.68,11.59,23.57,27.57,45.05,48.55,65.11C943.46,1032.43,936.61,1032.15,930.55,1032.06Zm39,19.23,1.55,1.24q7.14,5.71,14.3,11.4c-1.35-.11-2.71-.24-4.07-.37-3.68-.36-7.36-.67-11.06-1A31.06,31.06,0,0,0,969.57,1051.29Zm130,84.87c-.53.14-.26,0,0,0Zm-755.44-69.5c-4,5.32-7.65,9.54-10.66,14.15a99,99,0,0,0-8,14.49c-1.6,3.66,0,6.67,3.42,9.29,7.61,5.87,15.7,6.46,24.54,3.89,3.59-1,5.09-3,5.57-6.73a110.17,110.17,0,0,1,3.71-17.62c1.73-5.75.55-10.58-5-13.06C353,1069,347.86,1067.84,344.15,1066.66Zm8.11,14.33a119.24,119.24,0,0,0-3.82,17.53c-4.7,1-8.27.52-11.68-1.68a96.64,96.64,0,0,1,5.85-10.06c1.6-2.45,3.46-4.86,5.58-7.57,1.4.43,2.8.9,4.16,1.46A2.66,2.66,0,0,1,352.26,1081ZM630.51,872.73H615c-2.24,10.73-4.35,21-6.54,31.26-11.17,52.14-35.23,96.76-76.8,131.08-15.4,12.72-31,25.26-46.47,37.85-4,3.25-8.11,6.4-12.16,9.6.24.59.49,1.19.74,1.78,7.07-2.39,14-5.43,21.24-7,7.85-1.69,16-2.08,24-2.88,7.74-.76,15.5-1.31,23.43-2-6.42-17.9-.62-28,16.87-30a27.18,27.18,0,0,1,9.61.4c8.18,2.06,16.22,4.63,26,7.5,11.29-26,22.67-52.49,34.2-78.88,8-18.35,11.64-37,7.32-57.13C633.55,900.63,632.43,886.53,630.51,872.73ZM529.15,1062.6c-3.74.3-7.46.62-11.18,1-1.48.15-3,.28-4.46.41,5.71-4.63,11.46-9.31,17.18-14A30.19,30.19,0,0,0,529.15,1062.6Zm90-95.49c-8,18.42-16,36.86-23.94,55.18l-6.43,14.86c-5.91-1.77-11.53-3.44-17.2-4.86a33.76,33.76,0,0,0-8.31-1,45,45,0,0,0-5.22.31,50.14,50.14,0,0,0-7.76,1.49c34.67-32.83,57.78-75.43,68.8-126.85,1-4.54,1.93-9.08,2.88-13.67,1,7.92,2.11,16,3.83,24C629.31,932.75,627.19,948.79,619.19,967.11ZM1152,1109.73c1.79.26,4,.92,5.37.23,5.64-2.76,12.88-4.78,15.91-9.43,2-3-1.92-10.27-3.86-15.37-.86-2.28-3.53-3.8-5.1-5.88-2.85-3.76-5.48-7.69-9.06-12.75-4.15,1.34-9.27,2.52-14,4.65-5.29,2.39-6.58,7.17-4.85,12.67a104,104,0,0,1,3.41,14C1141.54,1108,1141.59,1108.25,1152,1109.73Zm-1.15-30.5c1.65,2.36,3.18,4.51,4.78,6.62a27.71,27.71,0,0,0,3.45,3.68l.55.5c.35.88.73,1.79,1.13,2.73s.87,2,1.29,3.14c-1.48.76-3.35,1.55-4.68,2.12l-2.59,1.13c-.43-.08-.85-.15-1.24-.2l-2.51-.38c-.14-.79-.29-1.66-.42-2.49a115.44,115.44,0,0,0-3.75-15.44C1148.13,1080.13,1149.48,1079.67,1150.85,1079.23Zm93.94,61v4.85a11,11,0,0,1-2.24,6.63,44.35,44.35,0,0,1-15.07,13,11.76,11.76,0,0,1-2.66,5.83c-3,3.57-7.64,5.65-13.81,6.18-18.89,1.6-38.31-1-61.12-8.1a204.12,204.12,0,0,1-22.08-8.61c7.48,16.83,5.88,34.73-4.7,52-18.06,29.42-43.85,44.37-76.64,44.43-20.12,0-40.48-.48-60.18-1l-6.74-.15-3.89-11c23.6.57,47.2,1.27,70.79,1.23,29.73,0,51.92-14,67.38-39.23,8.81-14.36,10.52-29.38,2.81-44.37-4.72-9.17-11.39-17.34-17-25.72h.05c1.14.37,2.24.9,3.38,1.3,17,6.12,32.57,15.25,50.1,20.73,18.94,5.93,37.39,9.31,56.94,7.64,2.25-.19,5.11-.81,6.38-2.33.86-1-.58-4-1-6.21,7.79-1.29,13.65-6,18.44-12.22v-4.84c-4.77-4.72-9.81-1.86-14.68-.38-11.21,3.41-22.31,7.46-34,1.78-5.26-2.55-10.64-4.86-16-7.16-3.79-1.62-4-3.81-1-6.2,4.3-3.34,8.87-6.32,13.25-9.57,13.86-10.28,13.32-7.76,8.31-25.22-2.7-9.42-3.73-20.19-15.16-24.31-.27-.1-.35-.69-.56-1.12,1.12-.43,2.62-.55,3.25-1.35,1.72-2.22,3.69-4.59,4.23-7.19.18-.83-3.64-2.9-5.88-3.76a128.82,128.82,0,0,0-14.28-4.69c-3.41-.89-7.11-1.9-10.49-1.43a138.9,138.9,0,0,0-44.1,14.32c-6.85,3.5-13.23,3.38-19.55-.37-24.17-14.33-45-32-58-57.64a84.09,84.09,0,0,0-10.45-16.26c-10.46-12.27-20.89-24.68-32.42-35.92-13.82-13.47-22.22-29.38-26.61-47.91-7.79-32.92-10.93-66.46-14.22-100-3-30.72-5.8-61.5-9.92-92.08-4.46-33-15.29-44-47.51-52-11.15-2.79-22.5-5.08-33.27-9-13.4-4.83-26.89-10-39.21-17-13.15-7.47-20.37-30.37-13.83-43.6,5.7-11.54,7.81-23.64,10.29-35.85.29-1.43,1.08-3.8,1.9-3.92,5.71-.86,6.78-5.45,7.83-9.64,2.61-10.35,5.2-20.73,7-31.24,1.52-8.89.83-9.25-8-10.64,3.08-23.63,5.42-47.79-9.58-68.26S775,402.14,749.54,402c-22.65-.15-41.94,8.72-57.1,25.1-19.78,21.37-16.87,47.84-14.16,73.88-8.46,1.08-9.25,1.21-7.73,10.1,2.07,12.07,5.37,23.95,8.46,35.82.47,1.81,2.74,3.13,4.1,4.74,1.48,1.78,3.56,3.43,4.16,5.48,3,10.21,4.27,21.11,8.55,30.7,6.59,14.76,2.71,38.14-10.86,47a128,128,0,0,1-29.2,14.23c-17.18,5.75-34.85,10.07-52.36,14.8-21.65,5.84-35.19,19.18-38.33,41.76q-4.67,33.55-8.53,67.23c-4.21,36.48-7.91,73-12.23,109.48-3.76,31.67-15.4,59.23-40.45,80.73-14.54,12.48-26.2,27.95-35.21,45.14-13,24.86-33.71,41.92-57.42,55.76-5.89,3.44-12,3.51-18.43.15a117,117,0,0,0-20.62-8.64c-13.71-4.1-27.52-10.21-41.83-1.4-1.94,1.2-4.81.79-7,1.72s-4.13,2.62-6.18,4c1.6,2.39,3.06,4.89,4.86,7.1.66.81,2.15.93,3,1.26-3.68,3.21-8.58,5.54-10.16,9.27-3.59,8.49-5.51,17.67-8.17,26.55-1.13,3.81,0,6.57,3.24,8.86,6.76,4.77,13.47,9.62,20.05,14.63,4.56,3.47,4.25,5.23-.87,7.47-3.87,1.69-7.76,3.36-11.57,5.17-8.65,4.11-17.42,6.12-26.89,2.82a96.43,96.43,0,0,0-15.69-4.43c-2.79-.47-5.89.93-8.85,1.49.88,3.07.83,7.2,2.85,9,4.35,3.86,9.78,6.52,14.77,9.67-2.72,4.22-2.32,6.84,2.31,6.89,13.06.16,26.87,2.17,39-1.3,19.57-5.58,40-9.72,57.75-20.85,5.08-3.18,11.07-4.9,16.65-7.29-2.34,4.44-5.37,7.66-8.12,11.1-17.66,22.1-17.55,43.61-1,66.35,15.65,21.48,36.77,31.86,62.71,32q15.54.06,31.09-.14l-4.57,11c-5.65,0-11.41.08-17.41.08-3,0-6.05,0-9.15,0-29.9-.11-53.95-12.37-71.48-36.43-14.31-19.65-18-39.14-11.09-58.19-10.6,4.3-21.46,7.23-32.1,10.1-3.45.94-6.89,1.87-10.31,2.84-10.82,3.08-21.87,2.57-32.56,2.06-3.22-.15-6.44-.3-9.6-.34-8.18-.1-11.79-4.55-13.21-7.2a13.09,13.09,0,0,1-1.54-5.42,62.74,62.74,0,0,1-9.43-6.68c-4.24-3.76-5.13-8.84-5.71-12.2-.12-.67-.21-1.33-.38-1.93a10.89,10.89,0,0,1,8.45-13.73c.64-.12,1.29-.31,1.94-.49a24.54,24.54,0,0,1,10.73-1,107.18,107.18,0,0,1,17.48,4.89c5.51,1.92,11.08,1.22,18.62-2.37l1.62-.76c-3.38-2.47-7-5-10.83-7.77-7.15-5-9.85-12.65-7.39-20.88.78-2.61,1.49-5.25,2.21-7.89a151.07,151.07,0,0,1,6.35-19.78,19.72,19.72,0,0,1,4.11-6.09c-.27-.41-.54-.83-.82-1.24a10.9,10.9,0,0,1,3.06-15.15c.5-.33,1-.69,1.47-1a32.63,32.63,0,0,1,6.46-3.88,22.44,22.44,0,0,1,6.09-1.48l.41,0c16.53-9.64,32.34-4.65,45.09-.62,1.54.48,3.08,1,4.62,1.43a127.26,127.26,0,0,1,22.54,9.42c3.54,1.85,5.64,1.41,7.89.1,25.88-15.11,42.8-31.45,53.26-51.41,10.08-19.22,22.78-35.49,37.77-48.35,21-18,33-42.1,36.72-73.74,2.38-20,4.6-40.49,6.76-60.26q2.67-24.6,5.46-49.19c2.67-23.09,5.55-45.8,8.57-67.49,3.62-26,19.62-43.57,46.27-50.77,3.94-1.07,7.89-2.11,11.84-3.15,13.23-3.5,26.91-7.11,39.91-11.47a117.22,117.22,0,0,0,26.69-13c8.21-5.39,11.74-22.6,6.88-33.49-3.18-7.14-4.85-14.48-6.46-21.58-.75-3.31-1.46-6.45-2.31-9.48-.18-.2-.38-.4-.57-.59-.62-.66-1.23-1.31-1.78-2-.12-.11-.36-.31-.58-.52a17,17,0,0,1-5.7-8.46l-1.28-4.88c-2.71-10.31-5.52-21-7.38-31.85-.84-4.87-1.87-10.94,2-16.19a13.42,13.42,0,0,1,4.68-4c-2.27-24.42-2.55-50.88,18-73,17.32-18.72,39.63-28.6,64.55-28.6h.61c29.39.19,53.73,12.33,70.4,35.09,15.74,21.49,15,46.44,12.76,66.75a13.76,13.76,0,0,1,4.82,4.21c3.79,5.3,2.76,11.35,1.92,16.22-1.92,11.19-4.71,22.28-7.17,32.06-1,3.89-2.92,11.62-10.13,15.58l-.13.66c-2.32,11.56-4.73,23.52-10.56,35.34-4,8,1.41,24.73,9.44,29.29,12,6.82,25.67,12,37.52,16.23a225.44,225.44,0,0,0,24,6.66c2.74.65,5.49,1.3,8.22,2,37.14,9.3,50.66,24.16,55.65,61.15,3.59,26.56,6.21,53.6,8.74,79.75l1.53,15.69c3.1,31.64,6.3,64.37,13.68,95.6,4.06,17.14,11.78,31.09,23.61,42.62,11.19,10.91,21.36,22.85,31.19,34.4l1.92,2.25A94.32,94.32,0,0,1,1038.9,1001c10.63,20.82,27.75,37.73,53.88,53.23,2.6,1.55,5,2.09,9,0a150,150,0,0,1,47.55-15.4c5.44-.76,10.44.54,14.47,1.59a141.4,141.4,0,0,1,15.75,5.15c12.21,4.74,13.6,11.39,12.61,16.13a20.17,20.17,0,0,1-1.89,5.22c5.45,6.19,7.44,13.93,8.92,19.73.33,1.28.65,2.55,1,3.8l1,3.33c4.92,16.83,3.45,21.5-9.89,31.18-1,.74-2.13,1.55-3.37,2.47l-2.87,2.09c1.63.74,3.24,1.5,4.86,2.28,6.76,3.28,13.49,1.48,23.9-1.72l2.21-.67,1.81-.61c4.81-1.66,14.83-5.11,23.7,3.65A10.9,10.9,0,0,1,1244.79,1140.23Z" transform="translate(-68.35 -117.41)"/>
  </g>
  <g id="Chakras">
    <g>
      <path d="M786.24,670c1.85-2.1,1.67-3.46-.85-4.84-5.1-2.79-5.22-3.32-3.26-8.65,1.14-3.07.72-3.74-2.62-4.28-5.13-.83-5.89-1.73-5.86-7,0-3.37-.43-3.74-3.86-3.18-5.36.89-6,.52-7.82-4.68-1.12-3.14-1.83-3.38-4.7-1.62-4.33,2.65-5.71,2.43-8.77-1.36-2.35-2.91-3-2.91-5.4,0-3.09,3.75-4.38,4-8.51,1.54-3.31-2-3.82-1.79-5.06,1.79-1.59,4.59-2.57,5.17-7.43,4.38-.32,0-.64-.14-1-.2-2.38-.41-3.37.43-3.31,3,.17,6.18-.05,6.44-6,7.28-2.9.41-3.42,1.64-2.39,4.24,2.06,5.17,1.75,6-3.19,8.74-2.46,1.35-2.83,2.58-.83,4.76,3.8,4.13,3.75,4.94,0,9.23-1.83,2.09-1.73,3.46.83,4.84,4.86,2.62,5.12,3.47,3.36,8.45-1.25,3.53-1,3.94,2.91,4.55,4.7.73,5.38,1.51,5.42,6.29,0,4.39.14,4.48,4.41,3.67s5.56-.12,7.14,4.36c1.32,3.72,1.77,3.9,5,2,4.51-2.64,5.49-2.47,8.71,1.49,2.31,2.83,3,2.81,5.34-.16,2.82-3.58,4.24-3.85,8.21-1.53.38.22.72.49,1.1.71,1.93,1.11,3.16.76,4-1.5,2.29-6.22,2.36-6.24,8.63-5,2.31.45,3.22-.32,3.23-2.68,0-6.47.06-6.51,6.37-7.73,2.41-.46,3.08-1.52,2.2-3.9-2.19-5.93-2.14-6,3.36-9.16,2.19-1.25,2.35-2.54.75-4.41C782.35,674.78,782.33,674.46,786.24,670Zm-5-1.27c-.09,1.69-1.24,3.72-3.57,3.5-3-.27-1.3-3.17-2.31-4.49-.19-1.92,1.22-2.19,2.3-2.06C779.37,665.9,781.3,666.93,781.19,668.75Zm-7.64-13.51c1.43.22,3.39.07,3.69,1.93-.28,2.27-.58,4.54-2.88,4.5s-2.7-2.61-3.28-4.26C770.58,655.93,772.19,655,773.55,655.24Zm-6.26-8.66c2.61-.1,2.26,1.75,2.49,3.58,0,1.3-.78,3-2.22,2.66-1.73-.44-4-1.7-4.11-3.66S765.33,646.65,767.29,646.58Zm-21.23,14A12.2,12.2,0,0,1,757.8,672.7a12,12,0,0,1-24-.16C733.74,666.13,739.5,660.51,746.06,660.61Zm-16.12,7.69c-.4-.33-.75-.47-.87-.72-1-2.2-4-4.84-2.82-6.39,1.42-1.85,5-.39,8.15-.66A43.33,43.33,0,0,0,729.94,668.3Zm27.11-7.74c2.94,0,5.09,0,7.24,0,1.61,0,1.94.56,1.14,1.94-1.13,2-2.21,3.94-3.53,6.32A35.18,35.18,0,0,0,757.05,660.56Zm.27-19.75c2.31-.2,2.15,2.25,3,3.56-.52,1.14-.57,3-2.11,2.43s-4.42-.27-4.71-2.69S755.53,641,757.32,640.81Zm-11.55-2.17a3.75,3.75,0,0,1,3.39,3.78c0,2.67-2.13,1.78-3.93,1.93-1.38.22-2.93.09-2.75-2.16C742.63,640.22,744.31,638.62,745.77,638.64Zm-14.22,5.88c.21-1.62.43-3.85,2.7-3.71,1.76.1,3.66.89,3.91,3.56-.69,2.06-3,1.84-4.68,2.41S731.41,645.62,731.55,644.52Zm32,11.77H728.16C734.47,646.26,756.05,646.12,763.55,656.29Zm-38.94-9.71c1.83.17,3.7.75,3.53,2.55s-2.29,3.31-4.07,3.72c-1.48.34-2.28-1.32-2.3-2.94C722.07,648.26,721.86,646.32,724.61,646.58Zm-6.59,8.5c1.42.29,2.51.75,2.75,2.11.16.91-2.75,4.79-3.42,4.64-2.2-.47-2.79-2.14-2.86-4.11C714.4,655,717,656,718,655.08Zm-7.58,13.29c.2-1.48,2-2.81,4-2.66,1.33.1,2.32.72,1.73,2.65-1,1,1,4.27-2.57,3.9A3.5,3.5,0,0,1,710.44,668.37Zm-.06,12.08a3.54,3.54,0,0,1,3.31-3.51c3.5,0,1.39,3.34,2.64,4.49.27,1.85-1,2.13-2,2.09C712.35,683.43,710.34,682.42,710.38,680.45Zm7.2,13.58c-1.45-.63-3.64-.44-3.06-3.18.4-1.89,1.26-3.84,3.21-3.28,1.78.52,2.76,2.85,2.87,4.71C720.67,693.49,719.13,694.3,717.58,694Zm6.66,8.47c-2.66.15-2-1.92-2.51-3,.15-1.79,1-3.39,2.44-3,1.69.51,3.93,1.66,4,3.71S726.07,702.4,724.24,702.5Zm10.09,6c-2.36.29-2.44-2.05-2.78-3.59-.25-1.15.28-2.78,1.82-2.4,1.72.43,3.8.64,4.76,2.1C738.06,707.58,736.05,708.25,734.33,708.46Zm6.8-8.56c-.6.64-1.45,0-2.16-.17-14.93-3.44-23.84-22-16.73-35.51,2.15,3.88,4.22,7.56,6.24,11.26q6.06,11.06,12.06,22.14C740.91,698.31,741.94,699,741.13,699.9Zm4.67,10.66a3.59,3.59,0,0,1-3.23-3.77c0-2.55,2-1.66,3.1-1.89,1.61.09,3.49-.46,3.47,1.92A3.68,3.68,0,0,1,745.8,710.56Zm0-12.25L740.18,688a24.61,24.61,0,0,0,11.26.06C749.41,691.77,747.75,694.8,745.82,698.31Zm11.57,10.17c-1.82-.13-4-1.05-3.84-3.3.2-2.49,3-2.11,4.62-2.7,1.47-.52,1.76,1.16,2.17,2.4C759.45,706.16,759.68,708.63,757.39,708.48Zm12.35-9.1c-.13,1.76,0,3.76-2.67,3-2,.22-3.87-.55-3.62-2.36s2.32-3.26,4.12-3.62C769.06,696.15,769.87,697.74,769.74,699.38Zm-19.93.6,19.51-35.76C777.06,678.42,765.74,699.16,749.81,700Zm23.74-6c-1.21.22-2.84-.7-2.52-1.89.49-1.74,1-4.36,3.06-4.57,2.45-.26,2.89,2.14,3.14,4.74C776.92,693.94,775,693.75,773.55,694Zm4.19-10.49c-1.1.14-2.48-.08-2.5-1.95,1.19-1.31-.8-4.55,2.58-4.64,2.3-.06,3.3,2.07,3.38,3.73S779.4,683.31,777.74,683.52Z" transform="translate(-68.35 -117.41)"/>
      <path d="M786.39,789.44c-3.67-3.47-6.71-7.27-4.62-12.89a17.27,17.27,0,0,0,.75-3.51,2.48,2.48,0,0,0-2-3.17c-2.61-.77-5.11-1.9-7.68-2.8a2.59,2.59,0,0,1-1.87-1.62c-.88-2.46-2.12-4.84-2.68-7.37s-2.09-3.07-4-2.36c-6.75,2.44-12.1.64-16.49-4.84-1.18-1.48-2.55-1.32-3.94,0-2,1.86-4.11,3.58-6.14,5.4-.66.59-1.17,1.11-2.26.87-2.22-.5-4.54-.61-6.75-1.17-2.95-.75-5.08-.73-5.63,3.08-.27,1.89-1.59,3.61-2.09,5.49a3.67,3.67,0,0,1-2.79,2.79c-2.28.73-4.45,1.87-6.75,2.47-2.1.55-2.61,1.69-2.26,3.59.49,2.68.88,5.37,1.44,8a2.32,2.32,0,0,1-.44,2.37c-1.77,1.93-3.29,4.1-5.18,5.89s-1.84,3.17.1,5.09c3.39,3.37,7,6.81,4.83,12.5a22.42,22.42,0,0,0-.8,4.57c-.18,1.57.5,2.39,1.72,2.59,2.64.44,4.83,2.05,7.37,2.69a3.28,3.28,0,0,1,2.62,2.55c.75,2.62,2.35,4.92,2.79,7.68.27,1.67,1.56,1.89,3,1.63,2.79-.51,5.6-.94,8.37-1.51a2.14,2.14,0,0,1,2.36.53c1.91,2.11,4.69,3.18,6.5,5.46,1.16,1.47,2.69,1.43,3.92,0,1.9-2.17,4.47-3.49,6.5-5.47a2,2,0,0,1,2-.64c2.67.54,5.4.83,8,1.47,2.3.56,3.38,0,3.92-2.44,1.2-5.39,3.45-10,9.69-11.15.85-.15,1.67-.53,2.52-.66,1.86-.28,2.29-1.47,2-3.08-.44-2.79-.93-5.58-1.42-8.37-.12-.72-.72-1.52.07-2.13,2.21-1.71,3.08-4.54,5.25-6.24C788.82,792.9,788.41,791.34,786.39,789.44Zm-17.08-17.33c.48-.88,1.44-.85,2.32-.8,3.43.2,5.86,2.47,5.69,6.2a10.54,10.54,0,0,1-.18,1.73c-.23,1.06-.56,2.24-1.78,2.49-1.59.31-1.44-1.27-2-2.1-1.13-1.84-2.23-3.69-3.35-5.54C769.69,773.47,768.88,772.93,769.31,772.11ZM757.55,761.3c1.68-.41,3.4-.66,5.11-1s2.07.86,2.5,2c.71,1.86,2.46,3.55,1.2,5.77-.61,1.08-1.49.56-2.21,0a30.29,30.29,0,0,0-6.78-3.9c-.59-.25-1.32-.44-1.25-1.27A1.84,1.84,0,0,1,757.55,761.3Zm5.13,25.27a1,1,0,0,1-.22.23c-.4.33-.87.35-1.12-.07-1.16-1.93-2.66-3.72-3.16-6-.13-.6,1-.7,1.6-.7,1.63,0,3.25,0,4.87,0,.7,0,1.34.16,1,1.42Zm1.06,13c.66,1.34,2.38,2.76,1.69,4s-2.78.46-4.24.49c-3.63.07-3.64,0-1.82-3.22q.89-1.57,1.86-3.09c.15-.23.48-.36.89-.64A24.64,24.64,0,0,1,763.74,799.62Zm-18.11,4.23c-5.64,2-7.69-1.65-10.28-5.72-2.86-4.47-2.3-7.69.16-12.11s5.21-5.85,10.2-5.85,8,1.31,10.47,5.94c2.34,4.3,2.86,7.38.24,11.81S751.38,805.77,745.63,803.85Zm1.6,9.88c-.36.64-.78,1.25-1.47,2.36-1.3-2.27-2.33-4-3.34-5.82-.75-1.32-.4-2.15,1.17-2,2,.19,4.65-1.08,5.75.68C750.18,810.29,748.11,812.15,747.23,813.73Zm-17.55-26.68c-.43,0-4-5.38-3.79-5.95.88-2.15,2.83-.44,4.21-1.19,1,.79,2.94-1,3.42,1.26C733.66,781.86,730.1,787.06,729.68,787.05Zm3.49,16.08c0,2.11-2.61.41-4,1.17-1-.75-2.71.93-3.13-1.14-.2-.94,3.38-6.1,3.73-5.78C731.53,799,733.15,801.09,733.17,803.13Zm9.24-28.84c1-1.78,2-3.55,3.35-5.83.73,1.18,1.17,1.79,1.5,2.45.76,1.52,2.9,3.28,2,4.47-1.23,1.54-3.84.43-5.85.56C742.15,776,741.81,775.36,742.41,774.29Zm13.77,1.64a1.79,1.79,0,0,1-1.59-1c-1.5-2.6-3-5.21-4.78-8.38a25,25,0,0,1,15,7.77c.9.95.51,1.59-.75,1.61C761.41,776,758.79,776,756.18,775.93Zm-16.13-15.49c.23-1.21,4.84-5.22,5.82-4.75,2.23,1,4.52,2.24,5.65,4.61.5,1,0,1.93-1.39,1.86l-4.34-.19c-1.31.06-2.72.1-4.13.19S739.81,761.74,740.05,760.44Zm1.76,6.13c-.81,1.48-1.22,2.24-1.64,3-4,7.14-4.19,7.24-12.2,6.41-.51-.05-1.14.14-1.45-.45s.16-1,.53-1.39A25.29,25.29,0,0,1,741.81,766.57Zm-16.77-1c1.12-1.88.9-4.83,3.46-5.3a9.21,9.21,0,0,1,1.16.19c2,.66,5.15-.43,5.62,2.21.39,2.24-2.95,1.82-4.29,3.11a17.65,17.65,0,0,1-3,2c-.78.49-1.5,1.54-2.54.58A2.21,2.21,0,0,1,725,765.59Zm-10.15,7.73c2.21-.77,4.16-2.75,6.76-1.76,1.53.58.63,1.57.06,2.32a29.6,29.6,0,0,0-3.66,6.18c-.32.73-.4,1.88-1.62,1.72a2.16,2.16,0,0,1-1.7-1.81c-.28-1.16-.41-2.35-.57-3.36C714.53,775.39,713.06,774,714.89,773.32Zm-3.24,22.56c-2.75-3.36-2.34-6.15,1.17-8.8a2.23,2.23,0,0,1,2.12-.51c1,.32.73,1.19.74,1.93,0,1.3,0,2.61,0,3.91h-.09a18.28,18.28,0,0,1,0,2c-.14,1.21.89,2.91-.58,3.54S712.52,796.93,711.65,795.88ZM721,813.11c-2.5.82-7-2.63-6.88-4.17.13-1.84.16-2.71.27-3.57.16-1.25.62-2.49,1.91-2.79,1.66-.4,1.33,1.36,1.84,2.15,1.25,1.91,2.3,3.94,3.54,5.85C722.51,811.79,722.42,812.65,721,813.11Zm.64-11.21a25,25,0,0,1,0-19.42c1.83,3.18,3.4,5.85,4.92,8.55a2.2,2.2,0,0,1,0,2.19C725.1,795.93,723.55,798.63,721.68,801.9Zm12.86,20.91a9.62,9.62,0,0,1-5,1.06c-2.34.07-5.57-5.35-4.45-7.47.42-.79,1-1.13,1.82-.52a39.6,39.6,0,0,0,7.85,4.56C736.5,821.18,735.46,822.22,734.54,822.81Zm-9-14.53h9.84a1.7,1.7,0,0,1,1.61,1c1.33,2.71,3.34,5.08,4.4,8.62A25.06,25.06,0,0,1,725.58,808.28Zm25.59,16.47a6.16,6.16,0,0,1-10.75,0,2,2,0,0,1-.24-2.14c.42-.69,1.14-.43,2.34-.2a28,28,0,0,0,7.22-.11c.63-.11,1.33-.37,1.74.36A2,2,0,0,1,751.17,824.75Zm.77-7.22c-1.57.41-1.83-.27-1.16-1.52,1.2-2.21,2.48-4.38,3.7-6.58a2.25,2.25,0,0,1,2.17-1.18H766A24.45,24.45,0,0,1,751.94,817.53Zm12.86,5.28c-.53,1.66-1.93,1-2.95,1.06-.62,0-1.17,0-1.7-.13-1.57-.31-3.73-.29-4-2.17-.22-1.7,2-1.45,3.12-2.19,1.7-1.16,3.5-2.17,5.19-3.34.92-.63,1.69-.69,2.07.39C767.44,818.92,765.47,820.7,764.8,822.81Zm5.14-39.58c2.67,5.12,2.68,12.23.17,17.81C764,795.69,763.87,790.79,769.94,783.23Zm.33,29.8c-.93-.36-1.54-.9-.75-1.95a33.64,33.64,0,0,0,4.39-7.6c.83-2,1.91-.85,2.63.1,1,1.28.74,2.91.85,4.42C777.63,810.6,772.82,814,770.27,813Zm8.44-15.73c-.61.48-1.23,1-2.05.7-1-.33-.69-1.22-.71-1.94,0-1.31,0-2.61,0-3.92h0c0-1,0-2,0-2.93s-.58-2.1.65-2.6,2,.3,2.81,1.15C782.86,791.5,782.65,794.17,778.71,797.3Z" transform="translate(-68.35 -117.41)"/>
      <path d="M785.57,915.68c-2.16-4.32-1.68-7.83.08-12,1.18-2.81.85-6.24,2.26-9.16a2,2,0,0,0-.9-2.8c-3-1.47-5-4.58-7.83-5.78a16.66,16.66,0,0,1-9.48-9.48c-1.24-2.83-4.33-4.82-5.78-7.84a2,2,0,0,0-2.81-.94c-3.15,1.44-6.85,1-9.8,2.37-3.94,1.8-7.06,2-11,0-2.88-1.44-6.64-.93-9.78-2.38a2.12,2.12,0,0,0-3,1.14c-1.26,2.88-3.43,5-5.53,7.26-1.83,1.94-1.52,5-3,6.7s-5,1.12-6.91,3.14a23.84,23.84,0,0,1-7.24,5.55,2.15,2.15,0,0,0-1.15,3c1.32,3.07,1,6.67,2.3,9.47,2,4.17,2.08,7.52,0,11.67-1.24,2.46-.74,5.81-2,8.54-1,2.16-.39,3.47,1.75,4.41a15.34,15.34,0,0,1,4.69,3.52c2,2.09,4.3,3.73,7.34,3.9,1,.06,1.65.36,1.7,1.5.13,3.57,3,5.64,4.53,8.42,3.07,5.54,6.78,6.62,12.51,4.39,2.76-1.07,6.07-.72,8.44-3a1.05,1.05,0,0,1,1.69,0c4.11,4.07,10.24,1.87,14.3,4.67,1.63.23,2.57,0,3.14-1.24a24.94,24.94,0,0,1,5.35-7c2-2,1.65-5.22,3.1-7s5.11-1.12,7.15-3.27a23.46,23.46,0,0,1,7-5.36,2.1,2.1,0,0,0,1.26-3C786.54,922.09,787,918.44,785.57,915.68Zm-36.36-39.9a5.74,5.74,0,0,1,3.34-1.89c8.32-1.6,8.32-1.61,13.72,4.82a5.93,5.93,0,0,1,1.54,3.5,4.79,4.79,0,0,1-1.87,4c-1.16.77-1.86-.72-2.68-1.27a32.84,32.84,0,0,0-12.64-5.14C747.86,879.33,747.35,877.89,749.21,875.78Zm19.53,24.56c.15-.28.35-.54.71-1.09,6.8,14.54-2.16,32.58-17.24,35.77-.62.13-1.31.62-1.85.06s0-1.19.35-1.73Q759.71,916.84,768.74,900.34Zm-4.73-9H728.3C733.35,881.39,753.75,881.14,764,891.39Zm-38.58-12.87c5.25-6.22,5.81-6.42,13.77-4.59a5.79,5.79,0,0,1,3.29,2c1.72,2.11,1.24,3.43-1.41,3.89a32.48,32.48,0,0,0-12.63,5.07c-.87.59-1.62,2.19-3,1.19a4.85,4.85,0,0,1-1.71-3.6A6,6,0,0,1,725.43,878.52Zm16.37,56.59c-15-.91-27.67-19.89-19.53-35.81Zm-33-40.47c1.87-2.54,4.8-4.33,7.36-6.34a6,6,0,0,1,1.93-.65c1.68.24,3.14.61,4,1.79,1,1.39-.64,2.08-1.22,3a32.18,32.18,0,0,0-5,12.66c-.42,2.65-1.81,3.1-4,1.4a5,5,0,0,1-1.94-3.3c-.13-.86-.2-1.74-.34-2.6C709.3,898.54,708,895.8,708.81,894.64ZM722.25,930a5.2,5.2,0,0,1-4.07,1.75,5,5,0,0,1-3.25-1.32c-6.68-5.35-6.76-5.59-5-13.95a5.24,5.24,0,0,1,3.29-4.13c1.37-.53,2.26-.37,2.49,1.36a30.38,30.38,0,0,0,6,14.59C722.16,928.76,722.84,929.32,722.25,930Zm20.16,13.72a5.48,5.48,0,0,1-3.33,1.89c-8.44,1.75-8.49,1.74-13.91-4.93a5.68,5.68,0,0,1-1.41-3.57,4.75,4.75,0,0,1,1.79-3.73c1.32-.88,2.06.76,3,1.35a32.6,32.6,0,0,0,12.36,4.94C743.83,940.15,744.27,941.38,742.41,943.7ZM746.08,933c-1.09-.44-1.36-1.33-1.77-2.08-5.87-10.74-11.69-21.5-17.62-32.2-1.32-2.39-1-3.08,1.83-3.05,11.69.12,23.38,0,35.08.06,1.18,0,3.09-.47,1.78,1.94Zm20.1,8c-5.42,6.46-5.42,6.44-13.75,4.61a5.21,5.21,0,0,1-3.86-2.73c-.82-1.64-.85-2.82,1.52-3.11a30.38,30.38,0,0,0,13-5.06c.88-.57,1.6-2.23,3-1.28a4.76,4.76,0,0,1,1.76,3.74A6.07,6.07,0,0,1,766.18,941Zm16.47-16c-1.74,2.48-4.58,4.21-7.06,6.14a5.18,5.18,0,0,1-2,.66c-2,0-3.45-.56-4.23-1.74s.72-2.08,1.32-3a32.41,32.41,0,0,0,5-12.31c.16-.91-.16-2.22,1-2.54a3.51,3.51,0,0,1,3.24,1.16,5.38,5.38,0,0,1,1.72,3.43c.09.76.13,1.52.24,2.27C782.2,921,783.49,923.73,782.65,924.93Zm-1.22-21.15a4.65,4.65,0,0,1-2,2.86c-2.14,1.45-3.25,1-3.66-1.55a27.83,27.83,0,0,0-5.5-13.11c-1.67-2.11-.84-3,1.07-3.82a3.69,3.69,0,0,1,3.76,0c2.63,1.91,5.13,4,7.65,6.07.27.23.27.76.37,1C782,898.15,782,901,781.43,903.78Z" transform="translate(-68.35 -117.41)"/>
      <path d="M763,503.5c-6.57-1-10,4-13.89,7.76-3.34,3.24-3.3,3.53-6.42-.11-2.61-3-6.11-4.93-9.08-7.5-1.11-1-2.29-.53-3.41-.18-2,.62-3.24-.17-3.66-2.09-.44-2.08-1.77-2.88-3.64-3.67-3.93-1.66-7.71-3.55-12.05-4-2.1-.23-2.19-1.93-1.54-3.52a35.69,35.69,0,0,0,2.14-10.22c.24-2.6.94-5.07-1.57-7.16-1.22-1-.47-2.48.61-3.41,1.44-1.23,1.47-2.63,1.21-4.4-.61-4.21-.8-8.47-2.48-12.49-.81-2,.15-3.2,2.25-3.35,4.72-.33,8.63-3,13-4.46,1.35-.46,1.66-1.63,2-2.8.54-2.06,1.83-2.95,3.9-2.34,1.79.53,3-.17,4.45-1.2,3.28-2.38,6.6-4.63,9-8,1.38-1.88,3-1.6,4.3.2,2.57,3.7,6.46,5.81,9.87,8.52,1.32,1,2.66.7,4.06.45,1.58-.27,3.32-.42,3.68,1.61.47,2.66,2.27,3.64,4.44,4.67a31.44,31.44,0,0,0,9.9,3.27c2.55.28,3.27,1.69,2.29,3.84-1.91,4.2-1.57,8.79-2.52,13.14a3.1,3.1,0,0,0,1.26,3.15c1.66,1.51,1.65,3,.05,4.46-1.31,1.19-1.4,2.49-1.13,4.13.7,4.19.68,8.48,2.45,12.49.78,1.78.16,3.34-2.06,3.49-4.51.32-8.26,2.69-12.31,4.28-1.48.58-1.66,1.86-2.08,3.09C765.47,502.53,765,503.92,763,503.5Zm-3.27-32.12a13.89,13.89,0,1,0-27.78.17,13.89,13.89,0,1,0,27.78-.17Zm-35.34,9.41c-.3,1.65-.49,3.62,2.28,4.41,1.93.56,3.4,2.43,5.68,2.1a2.16,2.16,0,0,0,1.89-1.08c.33-.77-.49-1.12-.91-1.54a17.41,17.41,0,0,1-5.16-9.24c-.43-2.13-1.41-1.49-2.41-.6C724,476.34,724.44,478.4,724.35,480.79Zm0-18.47c.09,1.64-.23,3.2.52,4.63.46.89,1.08,1.8,2.15,1.81,1.29,0,1-1.25,1.18-2a19.32,19.32,0,0,1,4.9-8.4c.47-.48,1.55-.75,1-1.75a2.14,2.14,0,0,0-1.95-1c-2.8-.08-4.78,1.94-7.13,3C723.36,459.35,724.6,461.14,724.36,462.32Zm42.91,18.33c-.17-1.77.16-3.44-.67-5a2.35,2.35,0,0,0-2-1.5c-1,0-1,1-1.18,1.68a17.4,17.4,0,0,1-5.22,8.86c-1.77,1.58-.55,2.26.9,2.51,3,.51,5-1.87,7.41-2.92C768.27,483.58,767,481.79,767.27,480.65Zm0-18.06c.08-1.88.86-3.95-2-4.72-2-.53-3.44-2.41-5.65-2.3a3,3,0,0,0-2,.93c-.7.84.33,1.32.81,1.8a18.85,18.85,0,0,1,5,8.65c.19.71.09,1.74,1,1.83s1.55-.68,2-1.43C767.5,465.88,767.12,464.19,767.23,462.59ZM753.05,453c0-.22-.07-.43-.11-.64-.31-1.35-5.94-5.65-7.26-5.56s-6.77,4.38-7,5.49-.4,2.4,1.46,1.89a18.23,18.23,0,0,1,11.2.05C752.43,454.56,753,454.13,753.05,453Zm0,36.83c-.11-1.4-1.13-1.14-2.11-.87a20.23,20.23,0,0,1-9.66.13c-.82-.18-1.83-.81-2.39.07a2.22,2.22,0,0,0,.67,2.93c1.78,1.41,3.71,2.63,5.58,3.92a1.2,1.2,0,0,0,1.5,0c1.7-1.16,3.43-2.28,5.09-3.49A3.17,3.17,0,0,0,753,489.79Zm12.34-36.92c.44-3.45-1.9-5.66-3.19-8.12-.82-1.58-3-.33-4.57-.43s-3.48-.4-4.19,1,1.37,1.89,2.18,2.79c.95,1.06.72,3.37,2.73,3.22C760.77,451.15,763,452,765.34,452.87Zm-6.2,45.65c.81-.07,3,1,3.9-1.73.62-1.83,1.7-3.5,2.38-5.31.28-.74,0-1.59-1.2-1.08-3.35,1.48-8.05.44-9.63,5.26-.23.7-1.77.85-1.3,1.94.36.85,1.38.92,2.28.92Zm-20.18-53a4.53,4.53,0,0,0-.38-.66c-.69-.74-8-1-8.48-.14-1.17,2.08-2.23,4.22-3.19,6.4-.33.77-.1,1.62,1.12,1.11,2.93-1.21,7.08,0,8.47-4.33.2-.62,1.1-1,1.66-1.52C738.46,446.06,738.72,445.74,739,445.48Zm-5.14,53.06c1.14,0,1.9,0,2.66,0s2,.11,2.31-.8c.39-1.07-1-1.22-1.49-1.82a10.77,10.77,0,0,1-2-2.52c-.65-1.5-1.43-2.23-3.17-1.92a6.4,6.4,0,0,1-3.79-.67c-.72-.33-1.85-.51-1.43.7a32.15,32.15,0,0,0,3,6.44C730.94,499.54,732.77,498.3,733.82,498.54Zm-14.43-20.35c3.57-4.61,2.62-9.05.16-13.63-2.31,1.65-2.95,4.52-4.75,6.49a1.24,1.24,0,0,0,.16,1.16C716.65,474,717.28,476.67,719.39,478.19Zm3.31-25.26c0-2.54,0-2.62-1.36-2.37-6.13,1.18-7,2.53-6.14,8.57.35,2.42,1.26,2.89,2.9,1.23,1.95-1.95,2.15-5.16,4.65-6.8C722.83,453.5,722.72,453.15,722.7,452.93Zm48.93,25.63c5.87-5.39,5.71-10.46-.08-13.88-.23,2.24-.66,4.37-2.24,6a1,1,0,0,0,0,1.45C770.84,473.82,771.25,476,771.63,478.56ZM722.7,492.8c-.42-1.94,1.06-3.83-.87-4.85-1.68-.88-2.43-1.84-2.33-3.79s-1.89-2.12-3-2.4c-1.42-.33-1,1.36-1.15,2.15-1,5.58-1,5.59,4.36,7.69Zm29.49-52.43-2.57-2.08c-3.85-3.13-3.87-3.16-7.7.15-.69.59-2.64,1-1.51,2.24.84.93,2.16,2.86,4.08,1.1a1.65,1.65,0,0,1,2.13-.27C749,443.75,750.43,442,752.19,440.37Zm24.91,14.54c.53-1.53-.13-2.09-1.45-2.37-1.16-.24-2.25-.82-3.4-1.09-.8-.19-1.93-1.53-2.4,0-.34,1.08-1.1,2.73.27,3.59a3.74,3.74,0,0,1,2,3.7c-.06,1.89,1.86,2.09,3,2.34,1.39.29,1-1.34,1.2-2.16C776.71,457.57,776.88,456.16,777.1,454.91Zm-7.52,34.7c0,1.71.13,2.93,2.74,1.94,5-1.91,5.06-1.75,4.15-7a2.14,2.14,0,0,0-.13-.63c-.4-.77.27-2.51-1.13-2.19-1.21.28-3.27.43-3.1,2.63.11,1.44-.19,2.6-1.65,3.17C769.57,487.92,769.42,488.59,769.58,489.61Zm-23.52,18.05c1.37-1.15,2.93-2.32,4.3-3.68.53-.53,2.45-.82,1.19-2-.88-.8-1.88-2.87-3.73-1.35a3,3,0,0,1-3.83.24c-1.92-1-2.84.72-3.89,1.82C739.9,502.94,745.45,507.7,746.06,507.66Z" transform="translate(-68.35 -117.41)"/>
      <path d="M786.53,570.58a49.42,49.42,0,0,1-11-13.34c-5-8.62-13.55-12.35-23.12-9.69a23.3,23.3,0,0,1-13.44-.06c-8.85-2.62-17.76,1.11-22.52,9-3.12,5.18-6.49,10.15-11.26,14-2.4,1.91-2.15,3.54,0,5.28,4.78,3.82,8.09,8.8,11.26,13.94,3.9,6.31,9.71,10.28,17.13,9.5,8.23-.86,16.32-2.8,22.8.19,8.54,0,15-3.69,18.58-9.57,3.17-5.25,6.45-10.4,11.49-14.14C788.67,574,788.62,572.34,786.53,570.58Zm-27.41-11.89H732.94C736.66,552.12,752.1,550.48,759.12,558.69ZM720.65,588.2c-3-4.93-6-9.88-10.37-13.82-1-1-1-1.78,0-2.73,4.09-3.7,7-8.26,9.85-12.95,3-4.93,7.62-7.61,14.49-7.79-17.58,11.28-16.94,33.62-1,43.47C729.56,595.58,723.54,592.85,720.65,588.2ZM727.39,566c4.85,8.88,9.48,17.34,14.21,26C730.9,592.15,722.45,576.93,727.39,566Zm18.39,24.56c-4.88-8.89-9.38-17.12-13.9-25.33-1.37-2.49.69-1.92,1.78-1.93,6.78,0,13.56,0,20.34,0,6.58,0,6.62,0,3.56,5.72C753.79,576,749.92,582.93,745.78,590.51Zm6.63,1.46c-.62.16-1.31.51-1.86,0s-.07-1,.17-1.47c4.39-8,8.8-16.08,13.47-24.58C768.6,576.38,762.49,589.25,752.41,592Zm28.68-17.33c-4,3.65-6.91,8.09-9.63,12.72-3,5.07-7.55,7.5-13.57,7.32,7.6-5.27,11.94-12.17,12-21.57s-4.48-16.33-12-21.75c5.67-.17,10.2,2.08,13.15,6.79s6,9.66,10.17,13.56C782.4,572.82,782.2,573.63,781.09,574.64Z" transform="translate(-68.35 -117.41)"/>
      <g>
        <path d="M779.76,1139a16.7,16.7,0,0,0,3.79-16.19,42.83,42.83,0,0,1-1.75-14.57c.22-2.69-1.08-3.5-3.54-3.29a32,32,0,0,1-12.62-1.59c-6.76-2.18-12.52-.64-17.26,4.53-1.32,1.45-2,1.36-3.3,0-5-5.22-11.1-6.6-18-4.58a35.15,35.15,0,0,1-13.27,1.62c-3-.28-4,1-3.79,3.78a42.71,42.71,0,0,1-1.89,14.23,16.3,16.3,0,0,0,3.82,16.14c1,1.15,1.41,1.85.17,3.2-4.61,5-5.65,10.88-3.8,17.37a37.46,37.46,0,0,1,1.63,11c0,6,0,6,5.78,5.92a28.84,28.84,0,0,1,9.37,1.38c7.14,2.38,13.37,1.21,18.43-4.57,1.08-1.22,1.65-1.19,2.78,0,5,5.45,11.23,6.84,18.24,4.86a37.05,37.05,0,0,1,13.26-1.66c2.8.23,4.11-.9,3.88-3.78a39.56,39.56,0,0,1,1.76-13.91c1.68-6,.71-11.52-3.58-16.17C778.54,1141.33,778.4,1140.53,779.76,1139Zm-25.91-30.3a10.63,10.63,0,0,1,9.35-1.62,42.54,42.54,0,0,0,12.16,2.25c1.61,0,2,.78,2,2.24,0,4.4,1.1,8.62,2.17,12.85,1.13,4.42,0,8.33-3.43,12.2-1.11-4-2-7.39-3.72-10.44a30.6,30.6,0,0,0-18.17-14.57c-.68-.21-1.75,0-1.89-1S753.14,1109.19,753.85,1108.71Zm12.37,47.88v-31C772.81,1131.14,774.58,1147,766.22,1156.59Zm-36.35-29.49c0-1.9.71-2.47,2.51-2.43,4.48.08,9,0,13.44,0s9,.06,13.44,0c1.8,0,2.55.52,2.53,2.41q-.09,13.59,0,27.2c0,1.84-.68,2.49-2.51,2.48q-13.42-.09-26.87,0c-1.8,0-2.55-.57-2.53-2.44Q730,1140.7,729.87,1127.1Zm31.61-6.64H730.64C735.54,1113,753.49,1112.77,761.48,1120.46ZM712,1124.92c1.09-4.46,2.39-8.87,2.33-13.52,0-1.57.67-2.11,2.19-2.06,4.32.16,8.42-1,12.55-2.12a12,12,0,0,1,12.43,3.35c-14.37,3.23-22.76,11.75-26,26C712.12,1133,711,1129.21,712,1124.92Zm13.35.54v31.14C717.45,1147.41,718.42,1132,725.38,1125.46Zm4.12,49.28c-4.47-1-8.81-2.6-13.48-2.41-1.49.07-1.77-.83-1.78-2.11,0-4.51-1.13-8.84-2.23-13.2s.17-8.34,3.57-12.31c1.36,6.72,3.86,12.33,8.22,16.93s9.68,7.39,16.4,9C736.9,1174,733.55,1175.67,729.5,1174.74Zm.88-13.48h30.51C757,1167.2,739.36,1169.74,730.38,1161.26Zm49.07-3.88a42.61,42.61,0,0,0-2.15,12.51c0,1.64-.55,2.43-2.25,2.39-4.64-.11-9,1.16-13.47,2.35-3.51.94-6.68,0-9.62-1.94-.52-.33-1.27-.89-1.27-1.34,0-1,1.09-.8,1.76-1a30.51,30.51,0,0,0,19.34-14c2.09-3.35,3.19-7.1,4.26-11.52C779.57,1148.83,780.78,1152.77,779.45,1157.38Z" transform="translate(-68.35 -117.41)"/>
        <path d="M743.46,1149.1c1.6,2.46,3.16,2.43,4.75,0q4.59-7.15,9-14.43c1.51-2.49.7-3.93-2.23-4s-5.89,0-8.83,0c-3.17,0-6.33-.1-9.49,0-2.93.13-3.71,1.57-2.2,4.08Q738.86,1141.95,743.46,1149.1Zm8.71-14.42c-2.23,3.52-3.86,6.07-5.45,8.65-.71,1.15-1.29,1-1.87-.07-.06-.09-.13-.18-.18-.27-1.35-2.58-3.51-4.7-4.28-7.6C744,1134.18,747.61,1135.3,752.17,1134.68Z" transform="translate(-68.35 -117.41)"/>
      </g>
      <g>
        <path d="M787.2,1026.11c-2.71-2.77-4-6.62-6.65-9.28-2.11-2.09-4.92-3.45-2.64-6.82-.91-4.09-2-7.88-2.27-11.82a1.7,1.7,0,0,0-1.86-1.54c-3.36.2-6.54-1.76-9.64-1.46-4.21.4-6.69-1-9.43-4-2.12-2.3-5.6-3.28-7.91-5.71a1.87,1.87,0,0,0-2.7-.14c-2.65,2.69-6.64,3.76-8.92,6.52s-4.29,3.47-7.76,3.21-7.16,1.78-10.95,1.66a1.5,1.5,0,0,0-1.49,1.51c.22,4.92-3.08,9.46-1.54,14.5.2.66.39,1.46-.3,1.76-3.54,1.51-4.75,4.92-6.68,7.8-3.32,4.95-3.34,4.88,0,9.84,1.92,2.87,3.15,6.31,6.71,7.78a1,1,0,0,1,.4,1.42c-1.43,3.46.17,6.66.81,9.94,1.15,5.81,1.15,5.77,7,6.91,3.29.65,6.48,2.2,9.93.77,1-.4,1.3.37,1.75,1a10.76,10.76,0,0,0,2.19,2.81c2.89,2.13,6.21,3.66,8.83,6.2a1.77,1.77,0,0,0,2.44.07c2.73-2.58,6.25-4,9.1-6.38,3.35-2.77,3.25-2.77,7.83-3.19,3.57-.33,7-1.92,10.64-1.75a1.67,1.67,0,0,0,1.7-1.7c.1-3.76,2.13-7.39,1.74-10.92-.41-3.74.78-5.57,3.38-7.89s3.62-6.17,6.25-8.73A1.71,1.71,0,0,0,787.2,1026.11Zm-71.13,9.78c-2-.45-7.39-6.64-7.62-8.44-.18-1.44,5.37-8.28,7.76-9.07A38,38,0,0,0,716.07,1035.89Zm29.36-45.53c1.64.12,8.06,5.63,8.55,7.46-2.94-.29-5.83-.73-8.73-.82a29.62,29.62,0,0,0-8.78,1.19C737.2,995.94,744,990.25,745.43,990.36Zm-26.31,11c0-.2.47-.46.76-.52,2.66-.59,5.32-1.15,8-1.71,1,.15,2.19,0,2.49,1.15.24.91-.89,1.1-1.49,1.49a31.27,31.27,0,0,0-9.31,9.54c-.28.44-.45,1.13-1.09,1.08-.8-.06-1-.84-1-1.44C717,1007.59,718.86,1004.63,719.12,1001.37Zm6,53.4c-2-.55-4.83-.5-5.67-1.78-1.4-2.13-1.51-5.11-2.11-7.75a4.24,4.24,0,0,1,.08-1.62c.12-.62.25-1.35,1-1.48s.87.56,1.14,1a33.69,33.69,0,0,0,4.89,6.08c1.85,1.86,4.13,3.15,6.43,4.84C728.85,1055.93,727,1055.29,725.08,1054.77Zm20.55,9.29c-1.41.26-8.3-5.2-9.11-7.41,3,0,5.74,1,8.62.93a58.9,58.9,0,0,0,8.72-1.1C753.5,1058.64,748,1063.63,745.63,1064.06Zm-.21-10.81a26.06,26.06,0,0,1-.17-52.11,26.28,26.28,0,0,1,26.22,26C771.66,1041.37,759.84,1053.21,745.42,1053.25Zm26.06-.11c-1.08,1.29-9.68,2.07-11.48.92,2.27-1.9,4.82-3.36,6.86-5.46a58,58,0,0,0,5.2-6.74C773.24,1043.58,772.7,1051.68,771.48,1053.14ZM773.2,1011a2,2,0,0,1-.85,1.29c-.62.32-.9-.38-1.15-.81-2.71-4.62-6.62-8-11.48-11,2.09-1.76,3.86-.87,5.65-.89,6.46-.07,7.07,4.58,7.91,9.15A5.83,5.83,0,0,1,773.2,1011Zm5.14,22.8a5,5,0,0,1-2.16,1.93c-1,.4-1.86.43-1.47-1,1.45-5.37,1.07-10.75-.22-16.19a4.65,4.65,0,0,1,4,2.43C782.63,1027.43,782.64,1027.46,778.34,1033.78Z" transform="translate(-68.35 -117.41)"/>
        <path d="M745.41,1005a22.18,22.18,0,0,0-22.28,22.31A22.18,22.18,0,1,0,745.41,1005Zm-.16,4.17a12,12,0,1,1-11.9,12A12.19,12.19,0,0,1,745.25,1009.21Zm13,30.59a18.08,18.08,0,0,1-23.66,1.89c-6.61-5-9.27-14.21-5.8-20.19,2.57,10.75,7.82,15.8,16.46,15.82s14-5,16.53-15.43C765,1025.9,763.21,1034.71,758.25,1039.8Z" transform="translate(-68.35 -117.41)"/>
      </g>
    </g>
  </g>
  <g id="ATMA">
    <g>
      <path d="M634.35,1375c-32.81,7.06-53.93-31.92-65.88-65.84L545,1242.54c-6-16.93-14.16-40.11-32.34-48.13-10.34-4.55-23-3.73-37.64,2.47l-1.07.45,1.24,4.42,1.33-.49c16.45-5.94,29.1-2.42,38.63,10.81l-47.39,113.76c-3.89,7.65-10.41,10.38-15.21,10.38h-3v4.55h41.4v-4.54h-3a7,7,0,0,1-5.67-2.82c-1.36-1.94-1.5-4.54-.42-7.51l13-33.48h51l7.16,21.15c11.28,33.29,27.13,55.61,45.83,64.54a44.51,44.51,0,0,0,19.37,4.49,49.33,49.33,0,0,0,17.09-3.19l.94-.35-.37-4.41Zm-91.41-91H498.06l23.56-60.52a171.75,171.75,0,0,1,6.69,17.32Z" transform="translate(-68.35 -117.41)"/>
      <rect x="427.52" y="1053.59" width="50.78" height="9.37"/>
      <path d="M661.75,1203.09H596.69c-8,0-19.14-1.9-22.69-3.4l-1.82-.77v27.54l4.56-.07v-4.73a10.13,10.13,0,0,1,9.67-10.16h35.22v114.16a11,11,0,0,1-11,10.55h-3.73l-.08,4.56h44.84l-.07-4.56h-3.73a11,11,0,0,1-11-10.65V1211.5H672a10.14,10.14,0,0,1,9.73,10.16v4.73l4.56.07v-27.54l-1.82.77C680.89,1201.19,669.72,1203.05,661.75,1203.09Z" transform="translate(-68.35 -117.41)"/>
      <path d="M1049.19,1374.64l-1.46.31c-32.8,7-53.94-31.92-65.88-65.84l-23.51-66.57c-6-16.93-14.16-40.11-32.33-48.13-10.35-4.55-23-3.73-37.65,2.47l-1.06.45,1.24,4.42,1.33-.49c16.46-5.94,29.1-2.42,38.62,10.81l-47.38,113.76c-3.89,7.65-10.41,10.38-15.21,10.38h-5.73c-5.63,0-11.75-3.38-12.73-10.92l-15-123.49-.14-1.15h-3.77L776.85,1315,724,1200.59h-3.8l-14.62,124.69c-1,7.55-7.11,10.93-12.74,10.93h-4.38v4.55h39.93v-4.44H724c-3.24,0-6.2-3.31-6.2-6.92,0-.14,0-.28,0-.42l-1.31-.1,1.34-.2,8-88.4,47.56,103.17h3.78l.17-1.11c1.2-7.69,6.45-19.21,6.51-19.33l38.43-85.44,8.24,91.13c0,.23,0,.46,0,.7,0,3.61-3,6.91-6.2,6.91h-4.31v4.45h84.19v-4.54h-3a7,7,0,0,1-5.67-2.82c-1.36-1.94-1.51-4.54-.42-7.51l13-33.48h51l7.17,21.15c11.28,33.29,27.12,55.61,45.82,64.54a44.58,44.58,0,0,0,19.38,4.49,49.33,49.33,0,0,0,17.09-3.19l.93-.35ZM956.32,1284H911.44L935,1223.48a174.17,174.17,0,0,1,6.69,17.32Z" transform="translate(-68.35 -117.41)"/>
    </g>
  </g>
  <g id="Text_Arc" data-name="Text Arc">
    <g>
      <path d="M211.52,510.64l.8.34-7.65,18-.79-.34.3-.7c.88-2.06,0-5-3.72-5.16l-15.76-.69-9.15,21.48,11.36,11.16c2.68,2.47,5.38,1.11,6.26-.94l.3-.7.78.34-6.84,16.05-.79-.34.3-.71c1-2.43.82-6-2-9.13l-35.21-36.38s-5.21-5.7-7-6.45l.3-.72,60.22.46c4.24-.1,7-2.42,8-4.87Zm-29.59,11.29-29.7-1.29,21.33,20.94Z" transform="translate(-68.35 -117.41)"/>
      <path d="M223.83,461.42l9.84,11.16-17.29,31.5-.76-.43.53-1a5.56,5.56,0,0,0-2.1-7.49l-42.11-23.12h0a5.56,5.56,0,0,0-7.45,2.25l-.53,1-.77-.4L166.4,469h0l2.71-4.94h0l3.21-5.84.75.43-.53,1a5.55,5.55,0,0,0,2.11,7.49L220,492l6-10.89c4.42-8.06,2-13.43-2.54-19Z" transform="translate(-68.35 -117.41)"/>
      <path d="M252.71,417.45l8.84,12-20,29.89-.71-.49.61-.91a5.56,5.56,0,0,0-1.45-7.65l-40-26.67h0a5.54,5.54,0,0,0-7.62,1.59l-.6.91-.73-.47,3.7-5.54h0L198,415.4h0l3.7-5.55.71.5-.61.91a5.55,5.55,0,0,0,1.45,7.64l43,28.71,6.9-10.34c5.1-7.64,3.11-13.21-.9-19.1Z" transform="translate(-68.35 -117.41)"/>
      <path d="M271.74,319l8.16,7.23-.59.64-1.15-1a5.17,5.17,0,0,0-7.14.28l-10.9,12.31L299,372.8a5.54,5.54,0,0,0,7.7-.59l.73-.82.66.56-12.58,14.22-.64-.59.73-.82a5.55,5.55,0,0,0-.3-7.67l-38.94-34.46-10.89,12.31a5.16,5.16,0,0,0,.59,7.12l1.16,1-.57.67-8.17-7.23a37.33,37.33,0,0,0,8.11-6.77L266,327.82A37.22,37.22,0,0,0,271.74,319Z" transform="translate(-68.35 -117.41)"/>
      <path d="M352.16,318.3c5.15.43,9.34.24,13.11-3.19l.59.63L362.37,319c-5.92,5.47-12.05,5.23-16.27,4.69-1.52-.2-18.35-4-19.4-4.16-3.6-.55-7.5-1-9.82,1.11l-.55-.59s1.48-1.3,3.35-3.13c3.21-3.14,7.31-8.4,3.82-15.8a18.13,18.13,0,0,0-3.12-4.19c-5.49-5.61-11.9-6.52-16.88-2.4-3.41,2.83-7.11,6.55-8,7.28l35.09,37.95h0a5.55,5.55,0,0,0,7.77.23l.81-.75.6.63L325.9,352.71l-.58-.65.81-.74a5.55,5.55,0,0,0,.4-7.74l-32.66-35.32h0a5.54,5.54,0,0,0-7.77-.23l-.81.75-.6-.63,5.08-4.7h0l12.09-11.19c7.72-7.13,16.65-7,23.51.46,5.7,6.16,6.54,16.47.41,22.13,2-.63,5.86-.33,8.7.27,0,0,12.74,2.76,17.69,3.17Z" transform="translate(-68.35 -117.41)"/>
      <path d="M385.58,300.84l-14.85,11.78-.53-.69.86-.68a5.55,5.55,0,0,0,1-7.72l-29.87-37.67a5.54,5.54,0,0,0-7.71-.79l-.86.68-.55-.67,5.42-4.29h0l4-3.19h0l5.41-4.3.53.69-.86.68a5.54,5.54,0,0,0-1,7.67L376.44,300a5.55,5.55,0,0,0,7.74.82l.85-.68Z" transform="translate(-68.35 -117.41)"/>
      <path d="M422.06,255.24c5.51,8.1,3.14,17.57-7.55,24.82L397,291.93l-.47-.72.91-.62A5.55,5.55,0,0,0,399,283L372,243.15a5.55,5.55,0,0,0-7.63-1.32l-.9.6-.49-.71,5.72-3.88h0l8.51-5.78c10.06-6.83,18.84-5.77,23.75,1.4a13.24,13.24,0,0,1-.55,16.29C408.78,245.7,417.24,248.13,422.06,255.24Zm-5.73,3.14c-7.29-10.75-17.76-6.26-24.69-1.54l-.48-.66c4.39-3,11-9.31,4.73-18.55-4.43-6.47-10.62-7.71-17.41-3.08l-3.8,2.57,30.76,45.28,7-4.77C419.86,272.66,421.26,265.63,416.33,258.38Z" transform="translate(-68.35 -117.41)"/>
      <path d="M470.91,230.08l2.38,14.69-31.41,17.45-.41-.77,1-.53a5.55,5.55,0,0,0,2.21-7.46L421.08,211a5.56,5.56,0,0,0-7.24-1.66l-1,.53-.43-.75,6-3.35h0l16.1-8.94a37.27,37.27,0,0,0,8.27-6.4l1.23,2.22h0l.71,1.27h0l3.38,6.08-.77.41-.75-1.35a5.18,5.18,0,0,0-6.75-2.15l-15.45,8.58,13,23.43,12.81-7.12h0a4.27,4.27,0,0,0,1.59-5.77l-.62-1.11.74-.42,6.66,12-.75.4-.62-1.12a4.27,4.27,0,0,0-5.66-1.73l-12.88,7.15,12.61,22.71,10.86-6c8-4.46,8.81-10.32,8-17.39Z" transform="translate(-68.35 -117.41)"/>
      <path d="M503.27,202.4a13.73,13.73,0,0,1,8.31,7.85c3.94,8.74,1,17.35-8.13,21.45-3.88,1.75-10.78,3.53-15.33,1.72-1.69-2.18-3.66-7.35-4.05-11.43l.69-.32c2.88,8.51,10.38,11.39,17.24,7.83,5.63-2.92,8.67-9.05,5.82-15.36a10.57,10.57,0,0,0-6.42-6l-21.49-7.24a14.49,14.49,0,0,1-8.69-7.86c-3-6.66-1.15-15.56,7.86-19.62a37.65,37.65,0,0,1,7.15-2.24l3.13-1.42.42.94,4,8.76-.76.35c-2.26-5.07-7.64-6.35-12.56-4.13-5.82,2.62-7.79,8.65-5.62,13.47a10.88,10.88,0,0,0,6.46,5.85l22,7.38Z" transform="translate(-68.35 -117.41)"/>
      <path d="M626.29,188.22l.23.83-18.17,5-.22-.79,1.31-.36a3.68,3.68,0,0,0,2.26-4.47,1.9,1.9,0,0,0-.12-.36l-15.31-40.65-6.75,43.91a43.71,43.71,0,0,0-.5,9.33l-.79.22L554,160.47,561.58,202v0l0,.12a1.74,1.74,0,0,0,0,.22,3.67,3.67,0,0,0,4.25,2.67l1.3-.36.22.79-16.18,4.48-.24-.84,1.33-.36a6.16,6.16,0,0,0,4.64-6.93l-8.55-55.33.77-.21,37.29,44,8.84-56.71.76-.21L617.41,185a6.16,6.16,0,0,0,7.54,3.55Z" transform="translate(-68.35 -117.41)"/>
      <path d="M674.85,168,672,182.56l-35.51,5.5-.12-.86,1.08-.16a5.57,5.57,0,0,0,4.66-6.24l-7.44-48a5.56,5.56,0,0,0-6.21-4.07l-1.09.17-.14-.85,6.83-1.06h0l18.2-2.82a37.72,37.72,0,0,0,10-3.14l.39,2.5h0l.22,1.44h0l1.07,6.88L663,132l-.23-1.52a5.18,5.18,0,0,0-5.59-4.36l-17.46,2.71,4.1,26.48,14.48-2.24h0a4.28,4.28,0,0,0,3.49-4.86l-.2-1.27.84-.14,2.1,13.56-.84.12-.2-1.26a4.26,4.26,0,0,0-4.7-3.59l-14.57,2.25,4,25.67,12.28-1.9c9.08-1.41,11.84-6.65,13.47-13.58Z" transform="translate(-68.35 -117.41)"/>
      <path d="M747.69,146.94c.88,18.16-11.14,30.89-29.63,31.78l-22.41,1.09h0l-6.9.33,0-.86,1.1-.05a5.56,5.56,0,0,0,5.28-5.71L692.75,125a5.56,5.56,0,0,0-5.75-4.69l-1.1.06,0-.87,6.9-.33h0l22.38-1.09C733.62,117.23,746.81,128.75,747.69,146.94Zm-29.76,29.15c14.84-.72,24.07-12.25,23.26-28.83S730,120,715.25,120.73l-17,.82,2.67,55.36,17-.82Z" transform="translate(-68.35 -117.41)"/>
      <path d="M779.78,178.78,760.83,178l0-.86,1.1,0a5.55,5.55,0,0,0,5.76-5.22l1.88-48.05a5.54,5.54,0,0,0-5.34-5.62l-1.09,0,0-.86,6.91.27h0l5.12.2h0l6.92.27,0,.87-1.1,0a5.56,5.56,0,0,0-5.76,5.17l-1.88,48.07a5.56,5.56,0,0,0,5.34,5.66l1.09,0Z" transform="translate(-68.35 -117.41)"/>
      <path d="M848.77,174c-5.44,6.87-13.78,11.35-25.74,9.91-18-2.25-29.25-16.09-27-35.12,2.25-18.68,16.07-29.76,35-27.49a37.06,37.06,0,0,1,19.66,8.27l.27,12.36-.71-.09c-1.41-10.36-9.2-16.71-19.55-18-15.14-1.82-26.15,8.47-28.22,25.6-2.07,17.31,6.38,29.76,20.81,31.85,12.23,1.44,23.3-3.41,27.38-20.8l.72.08Z" transform="translate(-68.35 -117.41)"/>
      <path d="M880.12,192.63l-18.56-3.89.18-.85,1.08.23a5.56,5.56,0,0,0,6.55-4.2l9.87-47.06a5.56,5.56,0,0,0-4.33-6.44l-1.07-.22.16-.85,6.77,1.42h0l5,1.06h0l6.77,1.42-.19.85-1.07-.23a5.56,5.56,0,0,0-6.54,4.14l-9.87,47.08a5.55,5.55,0,0,0,4.32,6.47l1.07.22Z" transform="translate(-68.35 -117.41)"/>
      <path d="M972.72,156.84l-1.53-.48a5.36,5.36,0,0,0-6.64,3.38l-13.2,42.8a87.17,87.17,0,0,0-2.5,10.81l-.76-.24L917.73,151l-12.68,41.26a5.36,5.36,0,0,0,3.59,6.54l1.52.47-.24.83-17.06-5.26.26-.82,1.53.47a5.35,5.35,0,0,0,6.66-3.44L914.59,148A74.42,74.42,0,0,0,917,137.39l.82.25,0,.1,30.22,62,12.67-41.09h0a5.36,5.36,0,0,0-3.57-6.6l-1.53-.47.25-.83L973,156Z" transform="translate(-68.35 -117.41)"/>
      <path d="M1009.18,222.19,999,233l-33-14.25.36-.79,1,.44a5.56,5.56,0,0,0,7.26-2.8l19.25-44.55a5.55,5.55,0,0,0-3.1-6.75l-1-.43.34-.8,6.34,2.74h0l16.9,7.3a37.34,37.34,0,0,0,10.11,2.65l-1,2.33h0l-.57,1.33h0l-2.76,6.39-.79-.36.61-1.42a5.17,5.17,0,0,0-2.41-6.66l-16.22-7L989.68,195l13.45,5.81h0a4.27,4.27,0,0,0,5.54-2.26l.51-1.17.78.33-5.44,12.59-.78-.35.51-1.17a4.26,4.26,0,0,0-2.07-5.54l-13.53-5.85-10.3,23.84,11.41,4.93c8.43,3.64,13.55.68,18.63-4.32Z" transform="translate(-68.35 -117.41)"/>
      <path d="M1087.72,282.21l-.46.74-16.61-10.25.46-.73.64.4c1.91,1.17,4.92.71,5.66-2.9l3-15.48-19.87-12.26-12.73,9.56c-2.84,2.28-1.9,5.16,0,6.33l.65.4-.45.73-14.85-9.16.46-.74.66.41c2.25,1.38,5.81,1.71,9.33-.65l41.22-29.38s6.42-4.29,7.42-5.91l.66.41-9.45,59.45c-.54,4.21,1.35,7.25,3.61,8.65ZM1081,251.26l5.72-29.16-23.89,18Z" transform="translate(-68.35 -117.41)"/>
      <path d="M1127.41,294.86c-5.77,7.66-14.75,9.18-22.71,3.19-3.4-2.56-8.28-7.75-8.88-12.61,1.09-2.53,4.68-6.74,8.07-9.05l.61.46c-6.07,6.61-5,14.57,1.43,18.87,5.27,3.53,12.1,3.25,16.27-2.29a10.62,10.62,0,0,0,2.14-8.5l-4-22.31a14.49,14.49,0,0,1,2.71-11.4c4.39-5.84,13.08-8.49,21-2.54a38.2,38.2,0,0,1,5.4,5.18l2.75,2.07-.62.82-5.78,7.67-.67-.5c3.35-4.41,1.89-9.75-2.42-13-5.1-3.84-11.34-2.66-14.52,1.56a11,11,0,0,0-2,8.48l4.13,22.84A13.64,13.64,0,0,1,1127.41,294.86Z" transform="translate(-68.35 -117.41)"/>
      <path d="M1166.36,314.26a13.65,13.65,0,0,1-3.7,10.81c-6.33,7.2-15.4,8-22.89,1.46-3.19-2.8-7.67-8.35-7.9-13.24,1.28-2.44,5.17-6.37,8.73-8.42l.57.5c-6.55,6.14-6.08,14.17,0,18.94,5,3.91,11.83,4.14,16.4-1.06a10.62,10.62,0,0,0,2.78-8.31l-2.3-22.55a14.54,14.54,0,0,1,3.56-11.17c4.82-5.49,13.69-7.47,21.12-1a38.19,38.19,0,0,1,5,5.58l2.59,2.26-.68.78-6.35,7.21-.62-.55c3.67-4.15,2.62-9.58-1.44-13.14-4.8-4.22-11.1-3.52-14.59.45a10.91,10.91,0,0,0-2.65,8.3l2.38,23.1Z" transform="translate(-68.35 -117.41)"/>
      <path d="M1201.71,365.86l-13.6,6.08-24.93-25.89.63-.59.76.79a5.56,5.56,0,0,0,7.78.22l35-33.68a5.55,5.55,0,0,0-.25-7.42l-.77-.79.62-.61,4.8,5h0l12.78,13.27a37.93,37.93,0,0,0,8.31,6.35l-1.83,1.76-1,1h0l-5,4.83-.6-.63,1.11-1.08a5.16,5.16,0,0,0,.35-7.07l-12.26-12.73-19.31,18.59,10.17,10.56h0a4.28,4.28,0,0,0,6,.05l.92-.88.59.6-9.88,9.52-.58-.62.92-.89a4.27,4.27,0,0,0,.23-5.91l-10.23-10.62-18.71,18,8.63,9c6.37,6.62,12.24,5.86,18.85,3.21Z" transform="translate(-68.35 -117.41)"/>
      <path d="M1246.13,443.07l-.69.53-11.43-15,.65-.5.82,1.08a3.67,3.67,0,0,0,5,.44,3.47,3.47,0,0,0,.29-.25l32-29.34-43.25,10.09a43.61,43.61,0,0,0-8.85,3l-.49-.65,24.79-46.8-35.67,22.46h0l-.1.07-.19.13a3.67,3.67,0,0,0-.89,4.94l.82,1.07-.65.49-10.19-13.34.69-.53.84,1.1a6.16,6.16,0,0,0,8.15,1.73l48.16-28.54.48.63-26.91,51L1285.39,394l.48.63-40.1,39.06a6.16,6.16,0,0,0-.48,8.32Z" transform="translate(-68.35 -117.41)"/>
      <path d="M1285.32,479.8c-8.42,5-17.73,2.06-24.33-9.05l-10.79-18.16.76-.43c.11.19.46.78.55.95a5.57,5.57,0,0,0,7.48,2l41.43-24.61a5.55,5.55,0,0,0,1.78-7.53l-.55-.94.74-.45,3.53,5.94h0l5.25,8.84c6.21,10.45,4.63,19.16-2.83,23.62a13.23,13.23,0,0,1-16.23-1.53C1295.64,467.12,1292.7,475.42,1285.32,479.8Zm-2.79-5.91c11.18-6.63,7.33-17.35,3-24.56l.69-.43c2.68,4.55,8.63,11.51,18.23,5.84,6.73-4,8.35-10.13,4.13-17.19l-2.33-3.95-47.07,28,4.34,7.31C1268.06,476.54,1275,478.37,1282.53,473.89Z" transform="translate(-68.35 -117.41)"/>
      <path d="M1307.47,530l-14.81,1.5-15.55-32.4.79-.36.47,1a5.55,5.55,0,0,0,7.32,2.64L1329,481.63h0a5.56,5.56,0,0,0,2.52-7.37l-.48-1,.77-.39,2.89,6h0l2.44,5.08h0l2.88,6-.79.36-.47-1a5.57,5.57,0,0,0-7.32-2.65l-46.62,22.37,5.38,11.21c4,8.28,9.78,9.41,16.89,9Z" transform="translate(-68.35 -117.41)"/>
      <path d="M1372.35,568.5l-.81.31-.44-1.14c-1.28-3.38-4.65-5.55-7.79-6.34l-32-6.19-19.41,7.37a5.56,5.56,0,0,0-3.12,7.13l.39,1-.81.32-6.73-17.73.81-.29.39,1a5.56,5.56,0,0,0,7,3.28l19.54-7.42,19.94-25.23a11,11,0,0,0,1.64-10l-.42-1.1.8-.31,7.57,19.93-.8.31-.39-1a3.66,3.66,0,0,0-6.11-.93l-18.07,20.76,27.58,4.3h0l.1,0a3.66,3.66,0,0,0,3.85-4.76l-.39-1,.81-.31Z" transform="translate(-68.35 -117.41)"/>
    </g>
  </g>
</svg>
